<svg width="1920" height="3456" viewBox="0 0 1920 3456" fill="none" xmlns="http://www.w3.org/2000/svg">
<g clip-path="url(#clip0_56_2)">
<rect width="1920" height="3456" fill="#0E0E0E"/>
<rect width="1920" height="242" transform="translate(-1 3214)" fill="#0E0E0E"/>
<g filter="url(#filter0_f_56_2)">
<circle cx="99.5" cy="1514.5" r="356.5" fill="#3b6ac0" fill-opacity="0.11"/>
</g>
<g filter="url(#filter1_f_56_2)">
<circle cx="1787.5" cy="2978.5" r="356.5" fill="#3b6ac0" fill-opacity="0.11"/>
</g>
<g filter="url(#filter2_f_56_2)">
<circle cx="1931.5" cy="325.5" r="356.5" fill="#3b6ac0" fill-opacity="0.11"/>
</g>
<g filter="url(#filter3_f_56_2)">
<circle cx="231.5" cy="3917.5" r="356.5" fill="#3b6ac0" fill-opacity="0.11"/>
</g>
<path d="M-87.3871 1749.31C-87.3871 1752.24 -89.7629 1754.62 -92.6935 1754.62C-95.6242 1754.62 -98 1752.24 -98 1749.31C-98 1746.38 -95.6242 1744 -92.6935 1744C-89.7629 1744 -87.3871 1746.38 -87.3871 1749.31Z" fill="#3b6ac0" fill-opacity="0.16"/>
<path d="M-55.5484 1749.31C-55.5484 1752.24 -57.9242 1754.62 -60.8548 1754.62C-63.7855 1754.62 -66.1613 1752.24 -66.1613 1749.31C-66.1613 1746.38 -63.7855 1744 -60.8548 1744C-57.9242 1744 -55.5484 1746.38 -55.5484 1749.31Z" fill="#3b6ac0" fill-opacity="0.16"/>
<path d="M-23.7097 1749.31C-23.7097 1752.24 -26.0855 1754.62 -29.0161 1754.62C-31.9468 1754.62 -34.3226 1752.24 -34.3226 1749.31C-34.3226 1746.38 -31.9468 1744 -29.0161 1744C-26.0855 1744 -23.7097 1746.38 -23.7097 1749.31Z" fill="#3b6ac0" fill-opacity="0.16"/>
<path d="M8.12903 1749.31C8.12903 1752.24 5.75325 1754.62 2.82258 1754.62C-0.108101 1754.62 -2.48388 1752.24 -2.48388 1749.31C-2.48388 1746.38 -0.108101 1744 2.82258 1744C5.75325 1744 8.12903 1746.38 8.12903 1749.31Z" fill="#3b6ac0" fill-opacity="0.16"/>
<path d="M39.9677 1749.31C39.9677 1752.24 37.5919 1754.62 34.6613 1754.62C31.7306 1754.62 29.3548 1752.24 29.3548 1749.31C29.3548 1746.38 31.7306 1744 34.6613 1744C37.5919 1744 39.9677 1746.38 39.9677 1749.31Z" fill="#3b6ac0" fill-opacity="0.16"/>
<path d="M71.8064 1749.31C71.8064 1752.24 69.4307 1754.62 66.5 1754.62C63.5693 1754.62 61.1935 1752.24 61.1935 1749.31C61.1935 1746.38 63.5693 1744 66.5 1744C69.4307 1744 71.8064 1746.38 71.8064 1749.31Z" fill="#3b6ac0" fill-opacity="0.16"/>
<path d="M103.645 1749.31C103.645 1752.24 101.269 1754.62 98.3387 1754.62C95.408 1754.62 93.0322 1752.24 93.0322 1749.31C93.0322 1746.38 95.408 1744 98.3387 1744C101.269 1744 103.645 1746.38 103.645 1749.31Z" fill="#3b6ac0" fill-opacity="0.16"/>
<path d="M135.484 1749.31C135.484 1752.24 133.108 1754.62 130.177 1754.62C127.247 1754.62 124.871 1752.24 124.871 1749.31C124.871 1746.38 127.247 1744 130.177 1744C133.108 1744 135.484 1746.38 135.484 1749.31Z" fill="#3b6ac0" fill-opacity="0.16"/>
<path d="M167.323 1749.31C167.323 1752.24 164.947 1754.62 162.016 1754.62C159.085 1754.62 156.71 1752.24 156.71 1749.31C156.71 1746.38 159.085 1744 162.016 1744C164.947 1744 167.323 1746.38 167.323 1749.31Z" fill="#3b6ac0" fill-opacity="0.16"/>
<path d="M199.161 1749.31C199.161 1752.24 196.785 1754.62 193.855 1754.62C190.924 1754.62 188.548 1752.24 188.548 1749.31C188.548 1746.38 190.924 1744 193.855 1744C196.785 1744 199.161 1746.38 199.161 1749.31Z" fill="#3b6ac0" fill-opacity="0.16"/>
<path d="M231 1749.31C231 1752.24 228.624 1754.62 225.694 1754.62C222.763 1754.62 220.387 1752.24 220.387 1749.31C220.387 1746.38 222.763 1744 225.694 1744C228.624 1744 231 1746.38 231 1749.31Z" fill="#3b6ac0" fill-opacity="0.16"/>
<path d="M-87.3871 1781.16C-87.3871 1784.09 -89.7629 1786.47 -92.6935 1786.47C-95.6242 1786.47 -98 1784.09 -98 1781.16C-98 1778.23 -95.6242 1775.85 -92.6935 1775.85C-89.7629 1775.85 -87.3871 1778.23 -87.3871 1781.16Z" fill="#3b6ac0" fill-opacity="0.16"/>
<path d="M-55.5484 1781.16C-55.5484 1784.09 -57.9242 1786.47 -60.8548 1786.47C-63.7855 1786.47 -66.1613 1784.09 -66.1613 1781.16C-66.1613 1778.23 -63.7855 1775.85 -60.8548 1775.85C-57.9242 1775.85 -55.5484 1778.23 -55.5484 1781.16Z" fill="#3b6ac0" fill-opacity="0.16"/>
<path d="M-23.7097 1781.16C-23.7097 1784.09 -26.0855 1786.47 -29.0161 1786.47C-31.9468 1786.47 -34.3226 1784.09 -34.3226 1781.16C-34.3226 1778.23 -31.9468 1775.85 -29.0161 1775.85C-26.0855 1775.85 -23.7097 1778.23 -23.7097 1781.16Z" fill="#3b6ac0" fill-opacity="0.16"/>
<path d="M8.12903 1781.16C8.12903 1784.09 5.75325 1786.47 2.82258 1786.47C-0.108101 1786.47 -2.48388 1784.09 -2.48388 1781.16C-2.48388 1778.23 -0.108101 1775.85 2.82258 1775.85C5.75325 1775.85 8.12903 1778.23 8.12903 1781.16Z" fill="#3b6ac0" fill-opacity="0.16"/>
<path d="M39.9677 1781.16C39.9677 1784.09 37.5919 1786.47 34.6613 1786.47C31.7306 1786.47 29.3548 1784.09 29.3548 1781.16C29.3548 1778.23 31.7306 1775.85 34.6613 1775.85C37.5919 1775.85 39.9677 1778.23 39.9677 1781.16Z" fill="#3b6ac0" fill-opacity="0.16"/>
<path d="M71.8064 1781.16C71.8064 1784.09 69.4307 1786.47 66.5 1786.47C63.5693 1786.47 61.1935 1784.09 61.1935 1781.16C61.1935 1778.23 63.5693 1775.85 66.5 1775.85C69.4307 1775.85 71.8064 1778.23 71.8064 1781.16Z" fill="#3b6ac0" fill-opacity="0.16"/>
<path d="M103.645 1781.16C103.645 1784.09 101.269 1786.47 98.3387 1786.47C95.408 1786.47 93.0322 1784.09 93.0322 1781.16C93.0322 1778.23 95.408 1775.85 98.3387 1775.85C101.269 1775.85 103.645 1778.23 103.645 1781.16Z" fill="#3b6ac0" fill-opacity="0.16"/>
<path d="M135.484 1781.16C135.484 1784.09 133.108 1786.47 130.177 1786.47C127.247 1786.47 124.871 1784.09 124.871 1781.16C124.871 1778.23 127.247 1775.85 130.177 1775.85C133.108 1775.85 135.484 1778.23 135.484 1781.16Z" fill="#3b6ac0" fill-opacity="0.16"/>
<path d="M167.323 1781.16C167.323 1784.09 164.947 1786.47 162.016 1786.47C159.085 1786.47 156.71 1784.09 156.71 1781.16C156.71 1778.23 159.085 1775.85 162.016 1775.85C164.947 1775.85 167.323 1778.23 167.323 1781.16Z" fill="#3b6ac0" fill-opacity="0.16"/>
<path d="M199.161 1781.16C199.161 1784.09 196.785 1786.47 193.855 1786.47C190.924 1786.47 188.548 1784.09 188.548 1781.16C188.548 1778.23 190.924 1775.85 193.855 1775.85C196.785 1775.85 199.161 1778.23 199.161 1781.16Z" fill="#3b6ac0" fill-opacity="0.16"/>
<path d="M231 1781.16C231 1784.09 228.624 1786.47 225.694 1786.47C222.763 1786.47 220.387 1784.09 220.387 1781.16C220.387 1778.23 222.763 1775.85 225.694 1775.85C228.624 1775.85 231 1778.23 231 1781.16Z" fill="#3b6ac0" fill-opacity="0.16"/>
<path d="M-87.3871 1813.01C-87.3871 1815.95 -89.7629 1818.32 -92.6935 1818.32C-95.6242 1818.32 -98 1815.95 -98 1813.01C-98 1810.08 -95.6242 1807.71 -92.6935 1807.71C-89.7629 1807.71 -87.3871 1810.08 -87.3871 1813.01Z" fill="#3b6ac0" fill-opacity="0.16"/>
<path d="M-55.5484 1813.01C-55.5484 1815.95 -57.9242 1818.32 -60.8548 1818.32C-63.7855 1818.32 -66.1613 1815.95 -66.1613 1813.01C-66.1613 1810.08 -63.7855 1807.71 -60.8548 1807.71C-57.9242 1807.71 -55.5484 1810.08 -55.5484 1813.01Z" fill="#3b6ac0" fill-opacity="0.16"/>
<path d="M-23.7097 1813.01C-23.7097 1815.95 -26.0855 1818.32 -29.0161 1818.32C-31.9468 1818.32 -34.3226 1815.95 -34.3226 1813.01C-34.3226 1810.08 -31.9468 1807.71 -29.0161 1807.71C-26.0855 1807.71 -23.7097 1810.08 -23.7097 1813.01Z" fill="#3b6ac0" fill-opacity="0.16"/>
<path d="M8.12903 1813.01C8.12903 1815.95 5.75325 1818.32 2.82258 1818.32C-0.108101 1818.32 -2.48388 1815.95 -2.48388 1813.01C-2.48388 1810.08 -0.108101 1807.71 2.82258 1807.71C5.75325 1807.71 8.12903 1810.08 8.12903 1813.01Z" fill="#3b6ac0" fill-opacity="0.16"/>
<path d="M39.9677 1813.01C39.9677 1815.95 37.5919 1818.32 34.6613 1818.32C31.7306 1818.32 29.3548 1815.95 29.3548 1813.01C29.3548 1810.08 31.7306 1807.71 34.6613 1807.71C37.5919 1807.71 39.9677 1810.08 39.9677 1813.01Z" fill="#3b6ac0" fill-opacity="0.16"/>
<path d="M71.8064 1813.01C71.8064 1815.95 69.4307 1818.32 66.5 1818.32C63.5693 1818.32 61.1935 1815.95 61.1935 1813.01C61.1935 1810.08 63.5693 1807.71 66.5 1807.71C69.4307 1807.71 71.8064 1810.08 71.8064 1813.01Z" fill="#3b6ac0" fill-opacity="0.16"/>
<path d="M103.645 1813.01C103.645 1815.95 101.269 1818.32 98.3387 1818.32C95.408 1818.32 93.0322 1815.95 93.0322 1813.01C93.0322 1810.08 95.408 1807.71 98.3387 1807.71C101.269 1807.71 103.645 1810.08 103.645 1813.01Z" fill="#3b6ac0" fill-opacity="0.16"/>
<path d="M135.484 1813.01C135.484 1815.95 133.108 1818.32 130.177 1818.32C127.247 1818.32 124.871 1815.95 124.871 1813.01C124.871 1810.08 127.247 1807.71 130.177 1807.71C133.108 1807.71 135.484 1810.08 135.484 1813.01Z" fill="#3b6ac0" fill-opacity="0.16"/>
<path d="M167.323 1813.01C167.323 1815.95 164.947 1818.32 162.016 1818.32C159.085 1818.32 156.71 1815.95 156.71 1813.01C156.71 1810.08 159.085 1807.71 162.016 1807.71C164.947 1807.71 167.323 1810.08 167.323 1813.01Z" fill="#3b6ac0" fill-opacity="0.16"/>
<path d="M199.161 1813.01C199.161 1815.95 196.785 1818.32 193.855 1818.32C190.924 1818.32 188.548 1815.95 188.548 1813.01C188.548 1810.08 190.924 1807.71 193.855 1807.71C196.785 1807.71 199.161 1810.08 199.161 1813.01Z" fill="#3b6ac0" fill-opacity="0.16"/>
<path d="M231 1813.01C231 1815.95 228.624 1818.32 225.694 1818.32C222.763 1818.32 220.387 1815.95 220.387 1813.01C220.387 1810.08 222.763 1807.71 225.694 1807.71C228.624 1807.71 231 1810.08 231 1813.01Z" fill="#3b6ac0" fill-opacity="0.16"/>
<path d="M-87.3871 1844.87C-87.3871 1847.8 -89.7629 1850.18 -92.6935 1850.18C-95.6242 1850.18 -98 1847.8 -98 1844.87C-98 1841.94 -95.6242 1839.56 -92.6935 1839.56C-89.7629 1839.56 -87.3871 1841.94 -87.3871 1844.87Z" fill="#3b6ac0" fill-opacity="0.16"/>
<path d="M-55.5484 1844.87C-55.5484 1847.8 -57.9242 1850.18 -60.8548 1850.18C-63.7855 1850.18 -66.1613 1847.8 -66.1613 1844.87C-66.1613 1841.94 -63.7855 1839.56 -60.8548 1839.56C-57.9242 1839.56 -55.5484 1841.94 -55.5484 1844.87Z" fill="#3b6ac0" fill-opacity="0.16"/>
<path d="M-23.7097 1844.87C-23.7097 1847.8 -26.0855 1850.18 -29.0161 1850.18C-31.9468 1850.18 -34.3226 1847.8 -34.3226 1844.87C-34.3226 1841.94 -31.9468 1839.56 -29.0161 1839.56C-26.0855 1839.56 -23.7097 1841.94 -23.7097 1844.87Z" fill="#3b6ac0" fill-opacity="0.16"/>
<path d="M8.12903 1844.87C8.12903 1847.8 5.75325 1850.18 2.82258 1850.18C-0.108101 1850.18 -2.48388 1847.8 -2.48388 1844.87C-2.48388 1841.94 -0.108101 1839.56 2.82258 1839.56C5.75325 1839.56 8.12903 1841.94 8.12903 1844.87Z" fill="#3b6ac0" fill-opacity="0.16"/>
<path d="M39.9677 1844.87C39.9677 1847.8 37.5919 1850.18 34.6613 1850.18C31.7306 1850.18 29.3548 1847.8 29.3548 1844.87C29.3548 1841.94 31.7306 1839.56 34.6613 1839.56C37.5919 1839.56 39.9677 1841.94 39.9677 1844.87Z" fill="#3b6ac0" fill-opacity="0.16"/>
<path d="M71.8064 1844.87C71.8064 1847.8 69.4307 1850.18 66.5 1850.18C63.5693 1850.18 61.1935 1847.8 61.1935 1844.87C61.1935 1841.94 63.5693 1839.56 66.5 1839.56C69.4307 1839.56 71.8064 1841.94 71.8064 1844.87Z" fill="#3b6ac0" fill-opacity="0.16"/>
<path d="M103.645 1844.87C103.645 1847.8 101.269 1850.18 98.3387 1850.18C95.408 1850.18 93.0322 1847.8 93.0322 1844.87C93.0322 1841.94 95.408 1839.56 98.3387 1839.56C101.269 1839.56 103.645 1841.94 103.645 1844.87Z" fill="#3b6ac0" fill-opacity="0.16"/>
<path d="M135.484 1844.87C135.484 1847.8 133.108 1850.18 130.177 1850.18C127.247 1850.18 124.871 1847.8 124.871 1844.87C124.871 1841.94 127.247 1839.56 130.177 1839.56C133.108 1839.56 135.484 1841.94 135.484 1844.87Z" fill="#3b6ac0" fill-opacity="0.16"/>
<path d="M167.323 1844.87C167.323 1847.8 164.947 1850.18 162.016 1850.18C159.085 1850.18 156.71 1847.8 156.71 1844.87C156.71 1841.94 159.085 1839.56 162.016 1839.56C164.947 1839.56 167.323 1841.94 167.323 1844.87Z" fill="#3b6ac0" fill-opacity="0.16"/>
<path d="M199.161 1844.87C199.161 1847.8 196.785 1850.18 193.855 1850.18C190.924 1850.18 188.548 1847.8 188.548 1844.87C188.548 1841.94 190.924 1839.56 193.855 1839.56C196.785 1839.56 199.161 1841.94 199.161 1844.87Z" fill="#3b6ac0" fill-opacity="0.16"/>
<path d="M231 1844.87C231 1847.8 228.624 1850.18 225.694 1850.18C222.763 1850.18 220.387 1847.8 220.387 1844.87C220.387 1841.94 222.763 1839.56 225.694 1839.56C228.624 1839.56 231 1841.94 231 1844.87Z" fill="#3b6ac0" fill-opacity="0.16"/>
<path d="M-87.3871 1876.72C-87.3871 1879.65 -89.7629 1882.03 -92.6935 1882.03C-95.6242 1882.03 -98 1879.65 -98 1876.72C-98 1873.79 -95.6242 1871.41 -92.6935 1871.41C-89.7629 1871.41 -87.3871 1873.79 -87.3871 1876.72Z" fill="#3b6ac0" fill-opacity="0.16"/>
<path d="M-55.5484 1876.72C-55.5484 1879.65 -57.9242 1882.03 -60.8548 1882.03C-63.7855 1882.03 -66.1613 1879.65 -66.1613 1876.72C-66.1613 1873.79 -63.7855 1871.41 -60.8548 1871.41C-57.9242 1871.41 -55.5484 1873.79 -55.5484 1876.72Z" fill="#3b6ac0" fill-opacity="0.16"/>
<path d="M-23.7097 1876.72C-23.7097 1879.65 -26.0855 1882.03 -29.0161 1882.03C-31.9468 1882.03 -34.3226 1879.65 -34.3226 1876.72C-34.3226 1873.79 -31.9468 1871.41 -29.0161 1871.41C-26.0855 1871.41 -23.7097 1873.79 -23.7097 1876.72Z" fill="#3b6ac0" fill-opacity="0.16"/>
<path d="M8.12903 1876.72C8.12903 1879.65 5.75325 1882.03 2.82258 1882.03C-0.108101 1882.03 -2.48388 1879.65 -2.48388 1876.72C-2.48388 1873.79 -0.108101 1871.41 2.82258 1871.41C5.75325 1871.41 8.12903 1873.79 8.12903 1876.72Z" fill="#3b6ac0" fill-opacity="0.16"/>
<path d="M39.9677 1876.72C39.9677 1879.65 37.5919 1882.03 34.6613 1882.03C31.7306 1882.03 29.3548 1879.65 29.3548 1876.72C29.3548 1873.79 31.7306 1871.41 34.6613 1871.41C37.5919 1871.41 39.9677 1873.79 39.9677 1876.72Z" fill="#3b6ac0" fill-opacity="0.16"/>
<path d="M71.8064 1876.72C71.8064 1879.65 69.4307 1882.03 66.5 1882.03C63.5693 1882.03 61.1935 1879.65 61.1935 1876.72C61.1935 1873.79 63.5693 1871.41 66.5 1871.41C69.4307 1871.41 71.8064 1873.79 71.8064 1876.72Z" fill="#3b6ac0" fill-opacity="0.16"/>
<path d="M103.645 1876.72C103.645 1879.65 101.269 1882.03 98.3387 1882.03C95.408 1882.03 93.0322 1879.65 93.0322 1876.72C93.0322 1873.79 95.408 1871.41 98.3387 1871.41C101.269 1871.41 103.645 1873.79 103.645 1876.72Z" fill="#3b6ac0" fill-opacity="0.16"/>
<path d="M135.484 1876.72C135.484 1879.65 133.108 1882.03 130.177 1882.03C127.247 1882.03 124.871 1879.65 124.871 1876.72C124.871 1873.79 127.247 1871.41 130.177 1871.41C133.108 1871.41 135.484 1873.79 135.484 1876.72Z" fill="#3b6ac0" fill-opacity="0.16"/>
<path d="M167.323 1876.72C167.323 1879.65 164.947 1882.03 162.016 1882.03C159.085 1882.03 156.71 1879.65 156.71 1876.72C156.71 1873.79 159.085 1871.41 162.016 1871.41C164.947 1871.41 167.323 1873.79 167.323 1876.72Z" fill="#3b6ac0" fill-opacity="0.16"/>
<path d="M199.161 1876.72C199.161 1879.65 196.785 1882.03 193.855 1882.03C190.924 1882.03 188.548 1879.65 188.548 1876.72C188.548 1873.79 190.924 1871.41 193.855 1871.41C196.785 1871.41 199.161 1873.79 199.161 1876.72Z" fill="#3b6ac0" fill-opacity="0.16"/>
<path d="M231 1876.72C231 1879.65 228.624 1882.03 225.694 1882.03C222.763 1882.03 220.387 1879.65 220.387 1876.72C220.387 1873.79 222.763 1871.41 225.694 1871.41C228.624 1871.41 231 1873.79 231 1876.72Z" fill="#3b6ac0" fill-opacity="0.16"/>
<path d="M-87.3871 1908.57C-87.3871 1911.51 -89.7629 1913.88 -92.6935 1913.88C-95.6242 1913.88 -98 1911.51 -98 1908.57C-98 1905.64 -95.6242 1903.26 -92.6935 1903.26C-89.7629 1903.26 -87.3871 1905.64 -87.3871 1908.57Z" fill="#3b6ac0" fill-opacity="0.16"/>
<path d="M-55.5484 1908.57C-55.5484 1911.51 -57.9242 1913.88 -60.8548 1913.88C-63.7855 1913.88 -66.1613 1911.51 -66.1613 1908.57C-66.1613 1905.64 -63.7855 1903.26 -60.8548 1903.26C-57.9242 1903.26 -55.5484 1905.64 -55.5484 1908.57Z" fill="#3b6ac0" fill-opacity="0.16"/>
<path d="M-23.7097 1908.57C-23.7097 1911.51 -26.0855 1913.88 -29.0161 1913.88C-31.9468 1913.88 -34.3226 1911.51 -34.3226 1908.57C-34.3226 1905.64 -31.9468 1903.26 -29.0161 1903.26C-26.0855 1903.26 -23.7097 1905.64 -23.7097 1908.57Z" fill="#3b6ac0" fill-opacity="0.16"/>
<path d="M8.12903 1908.57C8.12903 1911.51 5.75325 1913.88 2.82258 1913.88C-0.108101 1913.88 -2.48388 1911.51 -2.48388 1908.57C-2.48388 1905.64 -0.108101 1903.26 2.82258 1903.26C5.75325 1903.26 8.12903 1905.64 8.12903 1908.57Z" fill="#3b6ac0" fill-opacity="0.16"/>
<path d="M39.9677 1908.57C39.9677 1911.51 37.5919 1913.88 34.6613 1913.88C31.7306 1913.88 29.3548 1911.51 29.3548 1908.57C29.3548 1905.64 31.7306 1903.26 34.6613 1903.26C37.5919 1903.26 39.9677 1905.64 39.9677 1908.57Z" fill="#3b6ac0" fill-opacity="0.16"/>
<path d="M71.8064 1908.57C71.8064 1911.51 69.4307 1913.88 66.5 1913.88C63.5693 1913.88 61.1935 1911.51 61.1935 1908.57C61.1935 1905.64 63.5693 1903.26 66.5 1903.26C69.4307 1903.26 71.8064 1905.64 71.8064 1908.57Z" fill="#3b6ac0" fill-opacity="0.16"/>
<path d="M103.645 1908.57C103.645 1911.51 101.269 1913.88 98.3387 1913.88C95.408 1913.88 93.0322 1911.51 93.0322 1908.57C93.0322 1905.64 95.408 1903.26 98.3387 1903.26C101.269 1903.26 103.645 1905.64 103.645 1908.57Z" fill="#3b6ac0" fill-opacity="0.16"/>
<path d="M135.484 1908.57C135.484 1911.51 133.108 1913.88 130.177 1913.88C127.247 1913.88 124.871 1911.51 124.871 1908.57C124.871 1905.64 127.247 1903.26 130.177 1903.26C133.108 1903.26 135.484 1905.64 135.484 1908.57Z" fill="#3b6ac0" fill-opacity="0.16"/>
<path d="M167.323 1908.57C167.323 1911.51 164.947 1913.88 162.016 1913.88C159.085 1913.88 156.71 1911.51 156.71 1908.57C156.71 1905.64 159.085 1903.26 162.016 1903.26C164.947 1903.26 167.323 1905.64 167.323 1908.57Z" fill="#3b6ac0" fill-opacity="0.16"/>
<path d="M199.161 1908.57C199.161 1911.51 196.785 1913.88 193.855 1913.88C190.924 1913.88 188.548 1911.51 188.548 1908.57C188.548 1905.64 190.924 1903.26 193.855 1903.26C196.785 1903.26 199.161 1905.64 199.161 1908.57Z" fill="#3b6ac0" fill-opacity="0.16"/>
<path d="M231 1908.57C231 1911.51 228.624 1913.88 225.694 1913.88C222.763 1913.88 220.387 1911.51 220.387 1908.57C220.387 1905.64 222.763 1903.26 225.694 1903.26C228.624 1903.26 231 1905.64 231 1908.57Z" fill="#3b6ac0" fill-opacity="0.16"/>
<path d="M-87.3871 1940.43C-87.3871 1943.36 -89.7629 1945.74 -92.6935 1945.74C-95.6242 1945.74 -98 1943.36 -98 1940.43C-98 1937.49 -95.6242 1935.12 -92.6935 1935.12C-89.7629 1935.12 -87.3871 1937.49 -87.3871 1940.43Z" fill="#3b6ac0" fill-opacity="0.16"/>
<path d="M-55.5484 1940.43C-55.5484 1943.36 -57.9242 1945.74 -60.8548 1945.74C-63.7855 1945.74 -66.1613 1943.36 -66.1613 1940.43C-66.1613 1937.49 -63.7855 1935.12 -60.8548 1935.12C-57.9242 1935.12 -55.5484 1937.49 -55.5484 1940.43Z" fill="#3b6ac0" fill-opacity="0.16"/>
<path d="M-23.7097 1940.43C-23.7097 1943.36 -26.0855 1945.74 -29.0161 1945.74C-31.9468 1945.74 -34.3226 1943.36 -34.3226 1940.43C-34.3226 1937.49 -31.9468 1935.12 -29.0161 1935.12C-26.0855 1935.12 -23.7097 1937.49 -23.7097 1940.43Z" fill="#3b6ac0" fill-opacity="0.16"/>
<path d="M8.12903 1940.43C8.12903 1943.36 5.75325 1945.74 2.82258 1945.74C-0.108101 1945.74 -2.48388 1943.36 -2.48388 1940.43C-2.48388 1937.49 -0.108101 1935.12 2.82258 1935.12C5.75325 1935.12 8.12903 1937.49 8.12903 1940.43Z" fill="#3b6ac0" fill-opacity="0.16"/>
<path d="M39.9677 1940.43C39.9677 1943.36 37.5919 1945.74 34.6613 1945.74C31.7306 1945.74 29.3548 1943.36 29.3548 1940.43C29.3548 1937.49 31.7306 1935.12 34.6613 1935.12C37.5919 1935.12 39.9677 1937.49 39.9677 1940.43Z" fill="#3b6ac0" fill-opacity="0.16"/>
<path d="M71.8064 1940.43C71.8064 1943.36 69.4307 1945.74 66.5 1945.74C63.5693 1945.74 61.1935 1943.36 61.1935 1940.43C61.1935 1937.49 63.5693 1935.12 66.5 1935.12C69.4307 1935.12 71.8064 1937.49 71.8064 1940.43Z" fill="#3b6ac0" fill-opacity="0.16"/>
<path d="M103.645 1940.43C103.645 1943.36 101.269 1945.74 98.3387 1945.74C95.408 1945.74 93.0322 1943.36 93.0322 1940.43C93.0322 1937.49 95.408 1935.12 98.3387 1935.12C101.269 1935.12 103.645 1937.49 103.645 1940.43Z" fill="#3b6ac0" fill-opacity="0.16"/>
<path d="M135.484 1940.43C135.484 1943.36 133.108 1945.74 130.177 1945.74C127.247 1945.74 124.871 1943.36 124.871 1940.43C124.871 1937.49 127.247 1935.12 130.177 1935.12C133.108 1935.12 135.484 1937.49 135.484 1940.43Z" fill="#3b6ac0" fill-opacity="0.16"/>
<path d="M167.323 1940.43C167.323 1943.36 164.947 1945.74 162.016 1945.74C159.085 1945.74 156.71 1943.36 156.71 1940.43C156.71 1937.49 159.085 1935.12 162.016 1935.12C164.947 1935.12 167.323 1937.49 167.323 1940.43Z" fill="#3b6ac0" fill-opacity="0.16"/>
<path d="M199.161 1940.43C199.161 1943.36 196.785 1945.74 193.855 1945.74C190.924 1945.74 188.548 1943.36 188.548 1940.43C188.548 1937.49 190.924 1935.12 193.855 1935.12C196.785 1935.12 199.161 1937.49 199.161 1940.43Z" fill="#3b6ac0" fill-opacity="0.16"/>
<path d="M231 1940.43C231 1943.36 228.624 1945.74 225.694 1945.74C222.763 1945.74 220.387 1943.36 220.387 1940.43C220.387 1937.49 222.763 1935.12 225.694 1935.12C228.624 1935.12 231 1937.49 231 1940.43Z" fill="#3b6ac0" fill-opacity="0.16"/>
<path d="M-87.3871 1972.28C-87.3871 1975.21 -89.7629 1977.59 -92.6935 1977.59C-95.6242 1977.59 -98 1975.21 -98 1972.28C-98 1969.35 -95.6242 1966.97 -92.6935 1966.97C-89.7629 1966.97 -87.3871 1969.35 -87.3871 1972.28Z" fill="#3b6ac0" fill-opacity="0.16"/>
<path d="M-55.5484 1972.28C-55.5484 1975.21 -57.9242 1977.59 -60.8548 1977.59C-63.7855 1977.59 -66.1613 1975.21 -66.1613 1972.28C-66.1613 1969.35 -63.7855 1966.97 -60.8548 1966.97C-57.9242 1966.97 -55.5484 1969.35 -55.5484 1972.28Z" fill="#3b6ac0" fill-opacity="0.16"/>
<path d="M-23.7097 1972.28C-23.7097 1975.21 -26.0855 1977.59 -29.0161 1977.59C-31.9468 1977.59 -34.3226 1975.21 -34.3226 1972.28C-34.3226 1969.35 -31.9468 1966.97 -29.0161 1966.97C-26.0855 1966.97 -23.7097 1969.35 -23.7097 1972.28Z" fill="#3b6ac0" fill-opacity="0.16"/>
<path d="M8.12903 1972.28C8.12903 1975.21 5.75325 1977.59 2.82258 1977.59C-0.108101 1977.59 -2.48388 1975.21 -2.48388 1972.28C-2.48388 1969.35 -0.108101 1966.97 2.82258 1966.97C5.75325 1966.97 8.12903 1969.35 8.12903 1972.28Z" fill="#3b6ac0" fill-opacity="0.16"/>
<path d="M39.9677 1972.28C39.9677 1975.21 37.5919 1977.59 34.6613 1977.59C31.7306 1977.59 29.3548 1975.21 29.3548 1972.28C29.3548 1969.35 31.7306 1966.97 34.6613 1966.97C37.5919 1966.97 39.9677 1969.35 39.9677 1972.28Z" fill="#3b6ac0" fill-opacity="0.16"/>
<path d="M71.8064 1972.28C71.8064 1975.21 69.4307 1977.59 66.5 1977.59C63.5693 1977.59 61.1935 1975.21 61.1935 1972.28C61.1935 1969.35 63.5693 1966.97 66.5 1966.97C69.4307 1966.97 71.8064 1969.35 71.8064 1972.28Z" fill="#3b6ac0" fill-opacity="0.16"/>
<path d="M103.645 1972.28C103.645 1975.21 101.269 1977.59 98.3387 1977.59C95.408 1977.59 93.0322 1975.21 93.0322 1972.28C93.0322 1969.35 95.408 1966.97 98.3387 1966.97C101.269 1966.97 103.645 1969.35 103.645 1972.28Z" fill="#3b6ac0" fill-opacity="0.16"/>
<path d="M135.484 1972.28C135.484 1975.21 133.108 1977.59 130.177 1977.59C127.247 1977.59 124.871 1975.21 124.871 1972.28C124.871 1969.35 127.247 1966.97 130.177 1966.97C133.108 1966.97 135.484 1969.35 135.484 1972.28Z" fill="#3b6ac0" fill-opacity="0.16"/>
<path d="M167.323 1972.28C167.323 1975.21 164.947 1977.59 162.016 1977.59C159.085 1977.59 156.71 1975.21 156.71 1972.28C156.71 1969.35 159.085 1966.97 162.016 1966.97C164.947 1966.97 167.323 1969.35 167.323 1972.28Z" fill="#3b6ac0" fill-opacity="0.16"/>
<path d="M199.161 1972.28C199.161 1975.21 196.785 1977.59 193.855 1977.59C190.924 1977.59 188.548 1975.21 188.548 1972.28C188.548 1969.35 190.924 1966.97 193.855 1966.97C196.785 1966.97 199.161 1969.35 199.161 1972.28Z" fill="#3b6ac0" fill-opacity="0.16"/>
<path d="M231 1972.28C231 1975.21 228.624 1977.59 225.694 1977.59C222.763 1977.59 220.387 1975.21 220.387 1972.28C220.387 1969.35 222.763 1966.97 225.694 1966.97C228.624 1966.97 231 1969.35 231 1972.28Z" fill="#3b6ac0" fill-opacity="0.16"/>
<path d="M-87.3871 2004.13C-87.3871 2007.06 -89.7629 2009.44 -92.6935 2009.44C-95.6242 2009.44 -98 2007.06 -98 2004.13C-98 2001.2 -95.6242 1998.82 -92.6935 1998.82C-89.7629 1998.82 -87.3871 2001.2 -87.3871 2004.13Z" fill="#3b6ac0" fill-opacity="0.16"/>
<path d="M-55.5484 2004.13C-55.5484 2007.06 -57.9242 2009.44 -60.8548 2009.44C-63.7855 2009.44 -66.1613 2007.06 -66.1613 2004.13C-66.1613 2001.2 -63.7855 1998.82 -60.8548 1998.82C-57.9242 1998.82 -55.5484 2001.2 -55.5484 2004.13Z" fill="#3b6ac0" fill-opacity="0.16"/>
<path d="M-23.7097 2004.13C-23.7097 2007.06 -26.0855 2009.44 -29.0161 2009.44C-31.9468 2009.44 -34.3226 2007.06 -34.3226 2004.13C-34.3226 2001.2 -31.9468 1998.82 -29.0161 1998.82C-26.0855 1998.82 -23.7097 2001.2 -23.7097 2004.13Z" fill="#3b6ac0" fill-opacity="0.16"/>
<path d="M8.12903 2004.13C8.12903 2007.06 5.75325 2009.44 2.82258 2009.44C-0.108101 2009.44 -2.48388 2007.06 -2.48388 2004.13C-2.48388 2001.2 -0.108101 1998.82 2.82258 1998.82C5.75325 1998.82 8.12903 2001.2 8.12903 2004.13Z" fill="#3b6ac0" fill-opacity="0.16"/>
<path d="M39.9677 2004.13C39.9677 2007.06 37.5919 2009.44 34.6613 2009.44C31.7306 2009.44 29.3548 2007.06 29.3548 2004.13C29.3548 2001.2 31.7306 1998.82 34.6613 1998.82C37.5919 1998.82 39.9677 2001.2 39.9677 2004.13Z" fill="#3b6ac0" fill-opacity="0.16"/>
<path d="M71.8064 2004.13C71.8064 2007.06 69.4307 2009.44 66.5 2009.44C63.5693 2009.44 61.1935 2007.06 61.1935 2004.13C61.1935 2001.2 63.5693 1998.82 66.5 1998.82C69.4307 1998.82 71.8064 2001.2 71.8064 2004.13Z" fill="#3b6ac0" fill-opacity="0.16"/>
<path d="M103.645 2004.13C103.645 2007.06 101.269 2009.44 98.3387 2009.44C95.408 2009.44 93.0322 2007.06 93.0322 2004.13C93.0322 2001.2 95.408 1998.82 98.3387 1998.82C101.269 1998.82 103.645 2001.2 103.645 2004.13Z" fill="#3b6ac0" fill-opacity="0.16"/>
<path d="M135.484 2004.13C135.484 2007.06 133.108 2009.44 130.177 2009.44C127.247 2009.44 124.871 2007.06 124.871 2004.13C124.871 2001.2 127.247 1998.82 130.177 1998.82C133.108 1998.82 135.484 2001.2 135.484 2004.13Z" fill="#3b6ac0" fill-opacity="0.16"/>
<path d="M167.323 2004.13C167.323 2007.06 164.947 2009.44 162.016 2009.44C159.085 2009.44 156.71 2007.06 156.71 2004.13C156.71 2001.2 159.085 1998.82 162.016 1998.82C164.947 1998.82 167.323 2001.2 167.323 2004.13Z" fill="#3b6ac0" fill-opacity="0.16"/>
<path d="M199.161 2004.13C199.161 2007.06 196.785 2009.44 193.855 2009.44C190.924 2009.44 188.548 2007.06 188.548 2004.13C188.548 2001.2 190.924 1998.82 193.855 1998.82C196.785 1998.82 199.161 2001.2 199.161 2004.13Z" fill="#3b6ac0" fill-opacity="0.16"/>
<path d="M231 2004.13C231 2007.06 228.624 2009.44 225.694 2009.44C222.763 2009.44 220.387 2007.06 220.387 2004.13C220.387 2001.2 222.763 1998.82 225.694 1998.82C228.624 1998.82 231 2001.2 231 2004.13Z" fill="#3b6ac0" fill-opacity="0.16"/>
<path d="M-87.3871 2035.99C-87.3871 2038.92 -89.7629 2041.29 -92.6935 2041.29C-95.6242 2041.29 -98 2038.92 -98 2035.99C-98 2033.05 -95.6242 2030.68 -92.6935 2030.68C-89.7629 2030.68 -87.3871 2033.05 -87.3871 2035.99Z" fill="#3b6ac0" fill-opacity="0.16"/>
<path d="M-55.5484 2035.99C-55.5484 2038.92 -57.9242 2041.29 -60.8548 2041.29C-63.7855 2041.29 -66.1613 2038.92 -66.1613 2035.99C-66.1613 2033.05 -63.7855 2030.68 -60.8548 2030.68C-57.9242 2030.68 -55.5484 2033.05 -55.5484 2035.99Z" fill="#3b6ac0" fill-opacity="0.16"/>
<path d="M-23.7097 2035.99C-23.7097 2038.92 -26.0855 2041.29 -29.0161 2041.29C-31.9468 2041.29 -34.3226 2038.92 -34.3226 2035.99C-34.3226 2033.05 -31.9468 2030.68 -29.0161 2030.68C-26.0855 2030.68 -23.7097 2033.05 -23.7097 2035.99Z" fill="#3b6ac0" fill-opacity="0.16"/>
<path d="M8.12903 2035.99C8.12903 2038.92 5.75325 2041.29 2.82258 2041.29C-0.108101 2041.29 -2.48388 2038.92 -2.48388 2035.99C-2.48388 2033.05 -0.108101 2030.68 2.82258 2030.68C5.75325 2030.68 8.12903 2033.05 8.12903 2035.99Z" fill="#3b6ac0" fill-opacity="0.16"/>
<path d="M39.9677 2035.99C39.9677 2038.92 37.5919 2041.29 34.6613 2041.29C31.7306 2041.29 29.3548 2038.92 29.3548 2035.99C29.3548 2033.05 31.7306 2030.68 34.6613 2030.68C37.5919 2030.68 39.9677 2033.05 39.9677 2035.99Z" fill="#3b6ac0" fill-opacity="0.16"/>
<path d="M71.8064 2035.99C71.8064 2038.92 69.4307 2041.29 66.5 2041.29C63.5693 2041.29 61.1935 2038.92 61.1935 2035.99C61.1935 2033.05 63.5693 2030.68 66.5 2030.68C69.4307 2030.68 71.8064 2033.05 71.8064 2035.99Z" fill="#3b6ac0" fill-opacity="0.16"/>
<path d="M103.645 2035.99C103.645 2038.92 101.269 2041.29 98.3387 2041.29C95.408 2041.29 93.0322 2038.92 93.0322 2035.99C93.0322 2033.05 95.408 2030.68 98.3387 2030.68C101.269 2030.68 103.645 2033.05 103.645 2035.99Z" fill="#3b6ac0" fill-opacity="0.16"/>
<path d="M135.484 2035.99C135.484 2038.92 133.108 2041.29 130.177 2041.29C127.247 2041.29 124.871 2038.92 124.871 2035.99C124.871 2033.05 127.247 2030.68 130.177 2030.68C133.108 2030.68 135.484 2033.05 135.484 2035.99Z" fill="#3b6ac0" fill-opacity="0.16"/>
<path d="M167.323 2035.99C167.323 2038.92 164.947 2041.29 162.016 2041.29C159.085 2041.29 156.71 2038.92 156.71 2035.99C156.71 2033.05 159.085 2030.68 162.016 2030.68C164.947 2030.68 167.323 2033.05 167.323 2035.99Z" fill="#3b6ac0" fill-opacity="0.16"/>
<path d="M199.161 2035.99C199.161 2038.92 196.785 2041.29 193.855 2041.29C190.924 2041.29 188.548 2038.92 188.548 2035.99C188.548 2033.05 190.924 2030.68 193.855 2030.68C196.785 2030.68 199.161 2033.05 199.161 2035.99Z" fill="#3b6ac0" fill-opacity="0.16"/>
<path d="M231 2035.99C231 2038.92 228.624 2041.29 225.694 2041.29C222.763 2041.29 220.387 2038.92 220.387 2035.99C220.387 2033.05 222.763 2030.68 225.694 2030.68C228.624 2030.68 231 2033.05 231 2035.99Z" fill="#3b6ac0" fill-opacity="0.16"/>
<path d="M-87.3871 2067.84C-87.3871 2070.77 -89.7629 2073.15 -92.6935 2073.15C-95.6242 2073.15 -98 2070.77 -98 2067.84C-98 2064.91 -95.6242 2062.53 -92.6935 2062.53C-89.7629 2062.53 -87.3871 2064.91 -87.3871 2067.84Z" fill="#3b6ac0" fill-opacity="0.16"/>
<path d="M-55.5484 2067.84C-55.5484 2070.77 -57.9242 2073.15 -60.8548 2073.15C-63.7855 2073.15 -66.1613 2070.77 -66.1613 2067.84C-66.1613 2064.91 -63.7855 2062.53 -60.8548 2062.53C-57.9242 2062.53 -55.5484 2064.91 -55.5484 2067.84Z" fill="#3b6ac0" fill-opacity="0.16"/>
<path d="M-23.7097 2067.84C-23.7097 2070.77 -26.0855 2073.15 -29.0161 2073.15C-31.9468 2073.15 -34.3226 2070.77 -34.3226 2067.84C-34.3226 2064.91 -31.9468 2062.53 -29.0161 2062.53C-26.0855 2062.53 -23.7097 2064.91 -23.7097 2067.84Z" fill="#3b6ac0" fill-opacity="0.16"/>
<path d="M8.12903 2067.84C8.12903 2070.77 5.75325 2073.15 2.82258 2073.15C-0.108101 2073.15 -2.48388 2070.77 -2.48388 2067.84C-2.48388 2064.91 -0.108101 2062.53 2.82258 2062.53C5.75325 2062.53 8.12903 2064.91 8.12903 2067.84Z" fill="#3b6ac0" fill-opacity="0.16"/>
<path d="M39.9677 2067.84C39.9677 2070.77 37.5919 2073.15 34.6613 2073.15C31.7306 2073.15 29.3548 2070.77 29.3548 2067.84C29.3548 2064.91 31.7306 2062.53 34.6613 2062.53C37.5919 2062.53 39.9677 2064.91 39.9677 2067.84Z" fill="#3b6ac0" fill-opacity="0.16"/>
<path d="M71.8064 2067.84C71.8064 2070.77 69.4307 2073.15 66.5 2073.15C63.5693 2073.15 61.1935 2070.77 61.1935 2067.84C61.1935 2064.91 63.5693 2062.53 66.5 2062.53C69.4307 2062.53 71.8064 2064.91 71.8064 2067.84Z" fill="#3b6ac0" fill-opacity="0.16"/>
<path d="M103.645 2067.84C103.645 2070.77 101.269 2073.15 98.3387 2073.15C95.408 2073.15 93.0322 2070.77 93.0322 2067.84C93.0322 2064.91 95.408 2062.53 98.3387 2062.53C101.269 2062.53 103.645 2064.91 103.645 2067.84Z" fill="#3b6ac0" fill-opacity="0.16"/>
<path d="M135.484 2067.84C135.484 2070.77 133.108 2073.15 130.177 2073.15C127.247 2073.15 124.871 2070.77 124.871 2067.84C124.871 2064.91 127.247 2062.53 130.177 2062.53C133.108 2062.53 135.484 2064.91 135.484 2067.84Z" fill="#3b6ac0" fill-opacity="0.16"/>
<path d="M167.323 2067.84C167.323 2070.77 164.947 2073.15 162.016 2073.15C159.085 2073.15 156.71 2070.77 156.71 2067.84C156.71 2064.91 159.085 2062.53 162.016 2062.53C164.947 2062.53 167.323 2064.91 167.323 2067.84Z" fill="#3b6ac0" fill-opacity="0.16"/>
<path d="M199.161 2067.84C199.161 2070.77 196.785 2073.15 193.855 2073.15C190.924 2073.15 188.548 2070.77 188.548 2067.84C188.548 2064.91 190.924 2062.53 193.855 2062.53C196.785 2062.53 199.161 2064.91 199.161 2067.84Z" fill="#3b6ac0" fill-opacity="0.16"/>
<path d="M231 2067.84C231 2070.77 228.624 2073.15 225.694 2073.15C222.763 2073.15 220.387 2070.77 220.387 2067.84C220.387 2064.91 222.763 2062.53 225.694 2062.53C228.624 2062.53 231 2064.91 231 2067.84Z" fill="#3b6ac0" fill-opacity="0.16"/>
<path d="M-87.3871 2099.69C-87.3871 2102.62 -89.7629 2105 -92.6935 2105C-95.6242 2105 -98 2102.62 -98 2099.69C-98 2096.76 -95.6242 2094.38 -92.6935 2094.38C-89.7629 2094.38 -87.3871 2096.76 -87.3871 2099.69Z" fill="#3b6ac0" fill-opacity="0.16"/>
<path d="M-55.5484 2099.69C-55.5484 2102.62 -57.9242 2105 -60.8548 2105C-63.7855 2105 -66.1613 2102.62 -66.1613 2099.69C-66.1613 2096.76 -63.7855 2094.38 -60.8548 2094.38C-57.9242 2094.38 -55.5484 2096.76 -55.5484 2099.69Z" fill="#3b6ac0" fill-opacity="0.16"/>
<path d="M-23.7097 2099.69C-23.7097 2102.62 -26.0855 2105 -29.0161 2105C-31.9468 2105 -34.3226 2102.62 -34.3226 2099.69C-34.3226 2096.76 -31.9468 2094.38 -29.0161 2094.38C-26.0855 2094.38 -23.7097 2096.76 -23.7097 2099.69Z" fill="#3b6ac0" fill-opacity="0.16"/>
<path d="M8.12903 2099.69C8.12903 2102.62 5.75325 2105 2.82258 2105C-0.108101 2105 -2.48388 2102.62 -2.48388 2099.69C-2.48388 2096.76 -0.108101 2094.38 2.82258 2094.38C5.75325 2094.38 8.12903 2096.76 8.12903 2099.69Z" fill="#3b6ac0" fill-opacity="0.16"/>
<path d="M39.9677 2099.69C39.9677 2102.62 37.5919 2105 34.6613 2105C31.7306 2105 29.3548 2102.62 29.3548 2099.69C29.3548 2096.76 31.7306 2094.38 34.6613 2094.38C37.5919 2094.38 39.9677 2096.76 39.9677 2099.69Z" fill="#3b6ac0" fill-opacity="0.16"/>
<path d="M71.8064 2099.69C71.8064 2102.62 69.4307 2105 66.5 2105C63.5693 2105 61.1935 2102.62 61.1935 2099.69C61.1935 2096.76 63.5693 2094.38 66.5 2094.38C69.4307 2094.38 71.8064 2096.76 71.8064 2099.69Z" fill="#3b6ac0" fill-opacity="0.16"/>
<path d="M103.645 2099.69C103.645 2102.62 101.269 2105 98.3387 2105C95.408 2105 93.0322 2102.62 93.0322 2099.69C93.0322 2096.76 95.408 2094.38 98.3387 2094.38C101.269 2094.38 103.645 2096.76 103.645 2099.69Z" fill="#3b6ac0" fill-opacity="0.16"/>
<path d="M135.484 2099.69C135.484 2102.62 133.108 2105 130.177 2105C127.247 2105 124.871 2102.62 124.871 2099.69C124.871 2096.76 127.247 2094.38 130.177 2094.38C133.108 2094.38 135.484 2096.76 135.484 2099.69Z" fill="#3b6ac0" fill-opacity="0.16"/>
<path d="M167.323 2099.69C167.323 2102.62 164.947 2105 162.016 2105C159.085 2105 156.71 2102.62 156.71 2099.69C156.71 2096.76 159.085 2094.38 162.016 2094.38C164.947 2094.38 167.323 2096.76 167.323 2099.69Z" fill="#3b6ac0" fill-opacity="0.16"/>
<path d="M199.161 2099.69C199.161 2102.62 196.785 2105 193.855 2105C190.924 2105 188.548 2102.62 188.548 2099.69C188.548 2096.76 190.924 2094.38 193.855 2094.38C196.785 2094.38 199.161 2096.76 199.161 2099.69Z" fill="#3b6ac0" fill-opacity="0.16"/>
<path d="M231 2099.69C231 2102.62 228.624 2105 225.694 2105C222.763 2105 220.387 2102.62 220.387 2099.69C220.387 2096.76 222.763 2094.38 225.694 2094.38C228.624 2094.38 231 2096.76 231 2099.69Z" fill="#3b6ac0" fill-opacity="0.16"/>
<path d="M1719.61 1393.31C1719.61 1396.24 1717.24 1398.62 1714.31 1398.62C1711.38 1398.62 1709 1396.24 1709 1393.31C1709 1390.38 1711.38 1388 1714.31 1388C1717.24 1388 1719.61 1390.38 1719.61 1393.31Z" fill="#3b6ac0" fill-opacity="0.16"/>
<path d="M1751.45 1393.31C1751.45 1396.24 1749.08 1398.62 1746.15 1398.62C1743.21 1398.62 1740.84 1396.24 1740.84 1393.31C1740.84 1390.38 1743.21 1388 1746.15 1388C1749.08 1388 1751.45 1390.38 1751.45 1393.31Z" fill="#3b6ac0" fill-opacity="0.16"/>
<path d="M1783.29 1393.31C1783.29 1396.24 1780.91 1398.62 1777.98 1398.62C1775.05 1398.62 1772.68 1396.24 1772.68 1393.31C1772.68 1390.38 1775.05 1388 1777.98 1388C1780.91 1388 1783.29 1390.38 1783.29 1393.31Z" fill="#3b6ac0" fill-opacity="0.16"/>
<path d="M1815.13 1393.31C1815.13 1396.24 1812.75 1398.62 1809.82 1398.62C1806.89 1398.62 1804.52 1396.24 1804.52 1393.31C1804.52 1390.38 1806.89 1388 1809.82 1388C1812.75 1388 1815.13 1390.38 1815.13 1393.31Z" fill="#3b6ac0" fill-opacity="0.16"/>
<path d="M1846.97 1393.31C1846.97 1396.24 1844.59 1398.62 1841.66 1398.62C1838.73 1398.62 1836.35 1396.24 1836.35 1393.31C1836.35 1390.38 1838.73 1388 1841.66 1388C1844.59 1388 1846.97 1390.38 1846.97 1393.31Z" fill="#3b6ac0" fill-opacity="0.16"/>
<path d="M1878.81 1393.31C1878.81 1396.24 1876.43 1398.62 1873.5 1398.62C1870.57 1398.62 1868.19 1396.24 1868.19 1393.31C1868.19 1390.38 1870.57 1388 1873.5 1388C1876.43 1388 1878.81 1390.38 1878.81 1393.31Z" fill="#3b6ac0" fill-opacity="0.16"/>
<path d="M1910.65 1393.31C1910.65 1396.24 1908.27 1398.62 1905.34 1398.62C1902.41 1398.62 1900.03 1396.24 1900.03 1393.31C1900.03 1390.38 1902.41 1388 1905.34 1388C1908.27 1388 1910.65 1390.38 1910.65 1393.31Z" fill="#3b6ac0" fill-opacity="0.16"/>
<path d="M1942.48 1393.31C1942.48 1396.24 1940.11 1398.62 1937.18 1398.62C1934.25 1398.62 1931.87 1396.24 1931.87 1393.31C1931.87 1390.38 1934.25 1388 1937.18 1388C1940.11 1388 1942.48 1390.38 1942.48 1393.31Z" fill="#3b6ac0" fill-opacity="0.16"/>
<path d="M1974.32 1393.31C1974.32 1396.24 1971.95 1398.62 1969.02 1398.62C1966.09 1398.62 1963.71 1396.24 1963.71 1393.31C1963.71 1390.38 1966.09 1388 1969.02 1388C1971.95 1388 1974.32 1390.38 1974.32 1393.31Z" fill="#3b6ac0" fill-opacity="0.16"/>
<path d="M2006.16 1393.31C2006.16 1396.24 2003.79 1398.62 2000.85 1398.62C1997.92 1398.62 1995.55 1396.24 1995.55 1393.31C1995.55 1390.38 1997.92 1388 2000.85 1388C2003.79 1388 2006.16 1390.38 2006.16 1393.31Z" fill="#3b6ac0" fill-opacity="0.16"/>
<path d="M2038 1393.31C2038 1396.24 2035.62 1398.62 2032.69 1398.62C2029.76 1398.62 2027.39 1396.24 2027.39 1393.31C2027.39 1390.38 2029.76 1388 2032.69 1388C2035.62 1388 2038 1390.38 2038 1393.31Z" fill="#3b6ac0" fill-opacity="0.16"/>
<path d="M1719.61 1425.16C1719.61 1428.09 1717.24 1430.47 1714.31 1430.47C1711.38 1430.47 1709 1428.09 1709 1425.16C1709 1422.23 1711.38 1419.85 1714.31 1419.85C1717.24 1419.85 1719.61 1422.23 1719.61 1425.16Z" fill="#3b6ac0" fill-opacity="0.16"/>
<path d="M1751.45 1425.16C1751.45 1428.09 1749.08 1430.47 1746.15 1430.47C1743.21 1430.47 1740.84 1428.09 1740.84 1425.16C1740.84 1422.23 1743.21 1419.85 1746.15 1419.85C1749.08 1419.85 1751.45 1422.23 1751.45 1425.16Z" fill="#3b6ac0" fill-opacity="0.16"/>
<path d="M1783.29 1425.16C1783.29 1428.09 1780.91 1430.47 1777.98 1430.47C1775.05 1430.47 1772.68 1428.09 1772.68 1425.16C1772.68 1422.23 1775.05 1419.85 1777.98 1419.85C1780.91 1419.85 1783.29 1422.23 1783.29 1425.16Z" fill="#3b6ac0" fill-opacity="0.16"/>
<path d="M1815.13 1425.16C1815.13 1428.09 1812.75 1430.47 1809.82 1430.47C1806.89 1430.47 1804.52 1428.09 1804.52 1425.16C1804.52 1422.23 1806.89 1419.85 1809.82 1419.85C1812.75 1419.85 1815.13 1422.23 1815.13 1425.16Z" fill="#3b6ac0" fill-opacity="0.16"/>
<path d="M1846.97 1425.16C1846.97 1428.09 1844.59 1430.47 1841.66 1430.47C1838.73 1430.47 1836.35 1428.09 1836.35 1425.16C1836.35 1422.23 1838.73 1419.85 1841.66 1419.85C1844.59 1419.85 1846.97 1422.23 1846.97 1425.16Z" fill="#3b6ac0" fill-opacity="0.16"/>
<path d="M1878.81 1425.16C1878.81 1428.09 1876.43 1430.47 1873.5 1430.47C1870.57 1430.47 1868.19 1428.09 1868.19 1425.16C1868.19 1422.23 1870.57 1419.85 1873.5 1419.85C1876.43 1419.85 1878.81 1422.23 1878.81 1425.16Z" fill="#3b6ac0" fill-opacity="0.16"/>
<path d="M1910.65 1425.16C1910.65 1428.09 1908.27 1430.47 1905.34 1430.47C1902.41 1430.47 1900.03 1428.09 1900.03 1425.16C1900.03 1422.23 1902.41 1419.85 1905.34 1419.85C1908.27 1419.85 1910.65 1422.23 1910.65 1425.16Z" fill="#3b6ac0" fill-opacity="0.16"/>
<path d="M1942.48 1425.16C1942.48 1428.09 1940.11 1430.47 1937.18 1430.47C1934.25 1430.47 1931.87 1428.09 1931.87 1425.16C1931.87 1422.23 1934.25 1419.85 1937.18 1419.85C1940.11 1419.85 1942.48 1422.23 1942.48 1425.16Z" fill="#3b6ac0" fill-opacity="0.16"/>
<path d="M1974.32 1425.16C1974.32 1428.09 1971.95 1430.47 1969.02 1430.47C1966.09 1430.47 1963.71 1428.09 1963.71 1425.16C1963.71 1422.23 1966.09 1419.85 1969.02 1419.85C1971.95 1419.85 1974.32 1422.23 1974.32 1425.16Z" fill="#3b6ac0" fill-opacity="0.16"/>
<path d="M2006.16 1425.16C2006.16 1428.09 2003.79 1430.47 2000.85 1430.47C1997.92 1430.47 1995.55 1428.09 1995.55 1425.16C1995.55 1422.23 1997.92 1419.85 2000.85 1419.85C2003.79 1419.85 2006.16 1422.23 2006.16 1425.16Z" fill="#3b6ac0" fill-opacity="0.16"/>
<path d="M2038 1425.16C2038 1428.09 2035.62 1430.47 2032.69 1430.47C2029.76 1430.47 2027.39 1428.09 2027.39 1425.16C2027.39 1422.23 2029.76 1419.85 2032.69 1419.85C2035.62 1419.85 2038 1422.23 2038 1425.16Z" fill="#3b6ac0" fill-opacity="0.16"/>
<path d="M1719.61 1457.01C1719.61 1459.95 1717.24 1462.32 1714.31 1462.32C1711.38 1462.32 1709 1459.95 1709 1457.01C1709 1454.08 1711.38 1451.71 1714.31 1451.71C1717.24 1451.71 1719.61 1454.08 1719.61 1457.01Z" fill="#3b6ac0" fill-opacity="0.16"/>
<path d="M1751.45 1457.01C1751.45 1459.95 1749.08 1462.32 1746.15 1462.32C1743.21 1462.32 1740.84 1459.95 1740.84 1457.01C1740.84 1454.08 1743.21 1451.71 1746.15 1451.71C1749.08 1451.71 1751.45 1454.08 1751.45 1457.01Z" fill="#3b6ac0" fill-opacity="0.16"/>
<path d="M1783.29 1457.01C1783.29 1459.95 1780.91 1462.32 1777.98 1462.32C1775.05 1462.32 1772.68 1459.95 1772.68 1457.01C1772.68 1454.08 1775.05 1451.71 1777.98 1451.71C1780.91 1451.71 1783.29 1454.08 1783.29 1457.01Z" fill="#3b6ac0" fill-opacity="0.16"/>
<path d="M1815.13 1457.01C1815.13 1459.95 1812.75 1462.32 1809.82 1462.32C1806.89 1462.32 1804.52 1459.95 1804.52 1457.01C1804.52 1454.08 1806.89 1451.71 1809.82 1451.71C1812.75 1451.71 1815.13 1454.08 1815.13 1457.01Z" fill="#3b6ac0" fill-opacity="0.16"/>
<path d="M1846.97 1457.01C1846.97 1459.95 1844.59 1462.32 1841.66 1462.32C1838.73 1462.32 1836.35 1459.95 1836.35 1457.01C1836.35 1454.08 1838.73 1451.71 1841.66 1451.71C1844.59 1451.71 1846.97 1454.08 1846.97 1457.01Z" fill="#3b6ac0" fill-opacity="0.16"/>
<path d="M1878.81 1457.01C1878.81 1459.95 1876.43 1462.32 1873.5 1462.32C1870.57 1462.32 1868.19 1459.95 1868.19 1457.01C1868.19 1454.08 1870.57 1451.71 1873.5 1451.71C1876.43 1451.71 1878.81 1454.08 1878.81 1457.01Z" fill="#3b6ac0" fill-opacity="0.16"/>
<path d="M1910.65 1457.01C1910.65 1459.95 1908.27 1462.32 1905.34 1462.32C1902.41 1462.32 1900.03 1459.95 1900.03 1457.01C1900.03 1454.08 1902.41 1451.71 1905.34 1451.71C1908.27 1451.71 1910.65 1454.08 1910.65 1457.01Z" fill="#3b6ac0" fill-opacity="0.16"/>
<path d="M1942.48 1457.01C1942.48 1459.95 1940.11 1462.32 1937.18 1462.32C1934.25 1462.32 1931.87 1459.95 1931.87 1457.01C1931.87 1454.08 1934.25 1451.71 1937.18 1451.71C1940.11 1451.71 1942.48 1454.08 1942.48 1457.01Z" fill="#3b6ac0" fill-opacity="0.16"/>
<path d="M1974.32 1457.01C1974.32 1459.95 1971.95 1462.32 1969.02 1462.32C1966.09 1462.32 1963.71 1459.95 1963.71 1457.01C1963.71 1454.08 1966.09 1451.71 1969.02 1451.71C1971.95 1451.71 1974.32 1454.08 1974.32 1457.01Z" fill="#3b6ac0" fill-opacity="0.16"/>
<path d="M2006.16 1457.01C2006.16 1459.95 2003.79 1462.32 2000.85 1462.32C1997.92 1462.32 1995.55 1459.95 1995.55 1457.01C1995.55 1454.08 1997.92 1451.71 2000.85 1451.71C2003.79 1451.71 2006.16 1454.08 2006.16 1457.01Z" fill="#3b6ac0" fill-opacity="0.16"/>
<path d="M2038 1457.01C2038 1459.95 2035.62 1462.32 2032.69 1462.32C2029.76 1462.32 2027.39 1459.95 2027.39 1457.01C2027.39 1454.08 2029.76 1451.71 2032.69 1451.71C2035.62 1451.71 2038 1454.08 2038 1457.01Z" fill="#3b6ac0" fill-opacity="0.16"/>
<path d="M1719.61 1488.87C1719.61 1491.8 1717.24 1494.18 1714.31 1494.18C1711.38 1494.18 1709 1491.8 1709 1488.87C1709 1485.94 1711.38 1483.56 1714.31 1483.56C1717.24 1483.56 1719.61 1485.94 1719.61 1488.87Z" fill="#3b6ac0" fill-opacity="0.16"/>
<path d="M1751.45 1488.87C1751.45 1491.8 1749.08 1494.18 1746.15 1494.18C1743.21 1494.18 1740.84 1491.8 1740.84 1488.87C1740.84 1485.94 1743.21 1483.56 1746.15 1483.56C1749.08 1483.56 1751.45 1485.94 1751.45 1488.87Z" fill="#3b6ac0" fill-opacity="0.16"/>
<path d="M1783.29 1488.87C1783.29 1491.8 1780.91 1494.18 1777.98 1494.18C1775.05 1494.18 1772.68 1491.8 1772.68 1488.87C1772.68 1485.94 1775.05 1483.56 1777.98 1483.56C1780.91 1483.56 1783.29 1485.94 1783.29 1488.87Z" fill="#3b6ac0" fill-opacity="0.16"/>
<path d="M1815.13 1488.87C1815.13 1491.8 1812.75 1494.18 1809.82 1494.18C1806.89 1494.18 1804.52 1491.8 1804.52 1488.87C1804.52 1485.94 1806.89 1483.56 1809.82 1483.56C1812.75 1483.56 1815.13 1485.94 1815.13 1488.87Z" fill="#3b6ac0" fill-opacity="0.16"/>
<path d="M1846.97 1488.87C1846.97 1491.8 1844.59 1494.18 1841.66 1494.18C1838.73 1494.18 1836.35 1491.8 1836.35 1488.87C1836.35 1485.94 1838.73 1483.56 1841.66 1483.56C1844.59 1483.56 1846.97 1485.94 1846.97 1488.87Z" fill="#3b6ac0" fill-opacity="0.16"/>
<path d="M1878.81 1488.87C1878.81 1491.8 1876.43 1494.18 1873.5 1494.18C1870.57 1494.18 1868.19 1491.8 1868.19 1488.87C1868.19 1485.94 1870.57 1483.56 1873.5 1483.56C1876.43 1483.56 1878.81 1485.94 1878.81 1488.87Z" fill="#3b6ac0" fill-opacity="0.16"/>
<path d="M1910.65 1488.87C1910.65 1491.8 1908.27 1494.18 1905.34 1494.18C1902.41 1494.18 1900.03 1491.8 1900.03 1488.87C1900.03 1485.94 1902.41 1483.56 1905.34 1483.56C1908.27 1483.56 1910.65 1485.94 1910.65 1488.87Z" fill="#3b6ac0" fill-opacity="0.16"/>
<path d="M1942.48 1488.87C1942.48 1491.8 1940.11 1494.18 1937.18 1494.18C1934.25 1494.18 1931.87 1491.8 1931.87 1488.87C1931.87 1485.94 1934.25 1483.56 1937.18 1483.56C1940.11 1483.56 1942.48 1485.94 1942.48 1488.87Z" fill="#3b6ac0" fill-opacity="0.16"/>
<path d="M1974.32 1488.87C1974.32 1491.8 1971.95 1494.18 1969.02 1494.18C1966.09 1494.18 1963.71 1491.8 1963.71 1488.87C1963.71 1485.94 1966.09 1483.56 1969.02 1483.56C1971.95 1483.56 1974.32 1485.94 1974.32 1488.87Z" fill="#3b6ac0" fill-opacity="0.16"/>
<path d="M2006.16 1488.87C2006.16 1491.8 2003.79 1494.18 2000.85 1494.18C1997.92 1494.18 1995.55 1491.8 1995.55 1488.87C1995.55 1485.94 1997.92 1483.56 2000.85 1483.56C2003.79 1483.56 2006.16 1485.94 2006.16 1488.87Z" fill="#3b6ac0" fill-opacity="0.16"/>
<path d="M2038 1488.87C2038 1491.8 2035.62 1494.18 2032.69 1494.18C2029.76 1494.18 2027.39 1491.8 2027.39 1488.87C2027.39 1485.94 2029.76 1483.56 2032.69 1483.56C2035.62 1483.56 2038 1485.94 2038 1488.87Z" fill="#3b6ac0" fill-opacity="0.16"/>
<path d="M1719.61 1520.72C1719.61 1523.65 1717.24 1526.03 1714.31 1526.03C1711.38 1526.03 1709 1523.65 1709 1520.72C1709 1517.79 1711.38 1515.41 1714.31 1515.41C1717.24 1515.41 1719.61 1517.79 1719.61 1520.72Z" fill="#3b6ac0" fill-opacity="0.16"/>
<path d="M1751.45 1520.72C1751.45 1523.65 1749.08 1526.03 1746.15 1526.03C1743.21 1526.03 1740.84 1523.65 1740.84 1520.72C1740.84 1517.79 1743.21 1515.41 1746.15 1515.41C1749.08 1515.41 1751.45 1517.79 1751.45 1520.72Z" fill="#3b6ac0" fill-opacity="0.16"/>
<path d="M1783.29 1520.72C1783.29 1523.65 1780.91 1526.03 1777.98 1526.03C1775.05 1526.03 1772.68 1523.65 1772.68 1520.72C1772.68 1517.79 1775.05 1515.41 1777.98 1515.41C1780.91 1515.41 1783.29 1517.79 1783.29 1520.72Z" fill="#3b6ac0" fill-opacity="0.16"/>
<path d="M1815.13 1520.72C1815.13 1523.65 1812.75 1526.03 1809.82 1526.03C1806.89 1526.03 1804.52 1523.65 1804.52 1520.72C1804.52 1517.79 1806.89 1515.41 1809.82 1515.41C1812.75 1515.41 1815.13 1517.79 1815.13 1520.72Z" fill="#3b6ac0" fill-opacity="0.16"/>
<path d="M1846.97 1520.72C1846.97 1523.65 1844.59 1526.03 1841.66 1526.03C1838.73 1526.03 1836.35 1523.65 1836.35 1520.72C1836.35 1517.79 1838.73 1515.41 1841.66 1515.41C1844.59 1515.41 1846.97 1517.79 1846.97 1520.72Z" fill="#3b6ac0" fill-opacity="0.16"/>
<path d="M1878.81 1520.72C1878.81 1523.65 1876.43 1526.03 1873.5 1526.03C1870.57 1526.03 1868.19 1523.65 1868.19 1520.72C1868.19 1517.79 1870.57 1515.41 1873.5 1515.41C1876.43 1515.41 1878.81 1517.79 1878.81 1520.72Z" fill="#3b6ac0" fill-opacity="0.16"/>
<path d="M1910.65 1520.72C1910.65 1523.65 1908.27 1526.03 1905.34 1526.03C1902.41 1526.03 1900.03 1523.65 1900.03 1520.72C1900.03 1517.79 1902.41 1515.41 1905.34 1515.41C1908.27 1515.41 1910.65 1517.79 1910.65 1520.72Z" fill="#3b6ac0" fill-opacity="0.16"/>
<path d="M1942.48 1520.72C1942.48 1523.65 1940.11 1526.03 1937.18 1526.03C1934.25 1526.03 1931.87 1523.65 1931.87 1520.72C1931.87 1517.79 1934.25 1515.41 1937.18 1515.41C1940.11 1515.41 1942.48 1517.79 1942.48 1520.72Z" fill="#3b6ac0" fill-opacity="0.16"/>
<path d="M1974.32 1520.72C1974.32 1523.65 1971.95 1526.03 1969.02 1526.03C1966.09 1526.03 1963.71 1523.65 1963.71 1520.72C1963.71 1517.79 1966.09 1515.41 1969.02 1515.41C1971.95 1515.41 1974.32 1517.79 1974.32 1520.72Z" fill="#3b6ac0" fill-opacity="0.16"/>
<path d="M2006.16 1520.72C2006.16 1523.65 2003.79 1526.03 2000.85 1526.03C1997.92 1526.03 1995.55 1523.65 1995.55 1520.72C1995.55 1517.79 1997.92 1515.41 2000.85 1515.41C2003.79 1515.41 2006.16 1517.79 2006.16 1520.72Z" fill="#3b6ac0" fill-opacity="0.16"/>
<path d="M2038 1520.72C2038 1523.65 2035.62 1526.03 2032.69 1526.03C2029.76 1526.03 2027.39 1523.65 2027.39 1520.72C2027.39 1517.79 2029.76 1515.41 2032.69 1515.41C2035.62 1515.41 2038 1517.79 2038 1520.72Z" fill="#3b6ac0" fill-opacity="0.16"/>
<path d="M1719.61 1552.57C1719.61 1555.51 1717.24 1557.88 1714.31 1557.88C1711.38 1557.88 1709 1555.51 1709 1552.57C1709 1549.64 1711.38 1547.26 1714.31 1547.26C1717.24 1547.26 1719.61 1549.64 1719.61 1552.57Z" fill="#3b6ac0" fill-opacity="0.16"/>
<path d="M1751.45 1552.57C1751.45 1555.51 1749.08 1557.88 1746.15 1557.88C1743.21 1557.88 1740.84 1555.51 1740.84 1552.57C1740.84 1549.64 1743.21 1547.26 1746.15 1547.26C1749.08 1547.26 1751.45 1549.64 1751.45 1552.57Z" fill="#3b6ac0" fill-opacity="0.16"/>
<path d="M1783.29 1552.57C1783.29 1555.51 1780.91 1557.88 1777.98 1557.88C1775.05 1557.88 1772.68 1555.51 1772.68 1552.57C1772.68 1549.64 1775.05 1547.26 1777.98 1547.26C1780.91 1547.26 1783.29 1549.64 1783.29 1552.57Z" fill="#3b6ac0" fill-opacity="0.16"/>
<path d="M1815.13 1552.57C1815.13 1555.51 1812.75 1557.88 1809.82 1557.88C1806.89 1557.88 1804.52 1555.51 1804.52 1552.57C1804.52 1549.64 1806.89 1547.26 1809.82 1547.26C1812.75 1547.26 1815.13 1549.64 1815.13 1552.57Z" fill="#3b6ac0" fill-opacity="0.16"/>
<path d="M1846.97 1552.57C1846.97 1555.51 1844.59 1557.88 1841.66 1557.88C1838.73 1557.88 1836.35 1555.51 1836.35 1552.57C1836.35 1549.64 1838.73 1547.26 1841.66 1547.26C1844.59 1547.26 1846.97 1549.64 1846.97 1552.57Z" fill="#3b6ac0" fill-opacity="0.16"/>
<path d="M1878.81 1552.57C1878.81 1555.51 1876.43 1557.88 1873.5 1557.88C1870.57 1557.88 1868.19 1555.51 1868.19 1552.57C1868.19 1549.64 1870.57 1547.26 1873.5 1547.26C1876.43 1547.26 1878.81 1549.64 1878.81 1552.57Z" fill="#3b6ac0" fill-opacity="0.16"/>
<path d="M1910.65 1552.57C1910.65 1555.51 1908.27 1557.88 1905.34 1557.88C1902.41 1557.88 1900.03 1555.51 1900.03 1552.57C1900.03 1549.64 1902.41 1547.26 1905.34 1547.26C1908.27 1547.26 1910.65 1549.64 1910.65 1552.57Z" fill="#3b6ac0" fill-opacity="0.16"/>
<path d="M1942.48 1552.57C1942.48 1555.51 1940.11 1557.88 1937.18 1557.88C1934.25 1557.88 1931.87 1555.51 1931.87 1552.57C1931.87 1549.64 1934.25 1547.26 1937.18 1547.26C1940.11 1547.26 1942.48 1549.64 1942.48 1552.57Z" fill="#3b6ac0" fill-opacity="0.16"/>
<path d="M1974.32 1552.57C1974.32 1555.51 1971.95 1557.88 1969.02 1557.88C1966.09 1557.88 1963.71 1555.51 1963.71 1552.57C1963.71 1549.64 1966.09 1547.26 1969.02 1547.26C1971.95 1547.26 1974.32 1549.64 1974.32 1552.57Z" fill="#3b6ac0" fill-opacity="0.16"/>
<path d="M2006.16 1552.57C2006.16 1555.51 2003.79 1557.88 2000.85 1557.88C1997.92 1557.88 1995.55 1555.51 1995.55 1552.57C1995.55 1549.64 1997.92 1547.26 2000.85 1547.26C2003.79 1547.26 2006.16 1549.64 2006.16 1552.57Z" fill="#3b6ac0" fill-opacity="0.16"/>
<path d="M2038 1552.57C2038 1555.51 2035.62 1557.88 2032.69 1557.88C2029.76 1557.88 2027.39 1555.51 2027.39 1552.57C2027.39 1549.64 2029.76 1547.26 2032.69 1547.26C2035.62 1547.26 2038 1549.64 2038 1552.57Z" fill="#3b6ac0" fill-opacity="0.16"/>
<path d="M1719.61 1584.43C1719.61 1587.36 1717.24 1589.74 1714.31 1589.74C1711.38 1589.74 1709 1587.36 1709 1584.43C1709 1581.49 1711.38 1579.12 1714.31 1579.12C1717.24 1579.12 1719.61 1581.49 1719.61 1584.43Z" fill="#3b6ac0" fill-opacity="0.16"/>
<path d="M1751.45 1584.43C1751.45 1587.36 1749.08 1589.74 1746.15 1589.74C1743.21 1589.74 1740.84 1587.36 1740.84 1584.43C1740.84 1581.49 1743.21 1579.12 1746.15 1579.12C1749.08 1579.12 1751.45 1581.49 1751.45 1584.43Z" fill="#3b6ac0" fill-opacity="0.16"/>
<path d="M1783.29 1584.43C1783.29 1587.36 1780.91 1589.74 1777.98 1589.74C1775.05 1589.74 1772.68 1587.36 1772.68 1584.43C1772.68 1581.49 1775.05 1579.12 1777.98 1579.12C1780.91 1579.12 1783.29 1581.49 1783.29 1584.43Z" fill="#3b6ac0" fill-opacity="0.16"/>
<path d="M1815.13 1584.43C1815.13 1587.36 1812.75 1589.74 1809.82 1589.74C1806.89 1589.74 1804.52 1587.36 1804.52 1584.43C1804.52 1581.49 1806.89 1579.12 1809.82 1579.12C1812.75 1579.12 1815.13 1581.49 1815.13 1584.43Z" fill="#3b6ac0" fill-opacity="0.16"/>
<path d="M1846.97 1584.43C1846.97 1587.36 1844.59 1589.74 1841.66 1589.74C1838.73 1589.74 1836.35 1587.36 1836.35 1584.43C1836.35 1581.49 1838.73 1579.12 1841.66 1579.12C1844.59 1579.12 1846.97 1581.49 1846.97 1584.43Z" fill="#3b6ac0" fill-opacity="0.16"/>
<path d="M1878.81 1584.43C1878.81 1587.36 1876.43 1589.74 1873.5 1589.74C1870.57 1589.74 1868.19 1587.36 1868.19 1584.43C1868.19 1581.49 1870.57 1579.12 1873.5 1579.12C1876.43 1579.12 1878.81 1581.49 1878.81 1584.43Z" fill="#3b6ac0" fill-opacity="0.16"/>
<path d="M1910.65 1584.43C1910.65 1587.36 1908.27 1589.74 1905.34 1589.74C1902.41 1589.74 1900.03 1587.36 1900.03 1584.43C1900.03 1581.49 1902.41 1579.12 1905.34 1579.12C1908.27 1579.12 1910.65 1581.49 1910.65 1584.43Z" fill="#3b6ac0" fill-opacity="0.16"/>
<path d="M1942.48 1584.43C1942.48 1587.36 1940.11 1589.74 1937.18 1589.74C1934.25 1589.74 1931.87 1587.36 1931.87 1584.43C1931.87 1581.49 1934.25 1579.12 1937.18 1579.12C1940.11 1579.12 1942.48 1581.49 1942.48 1584.43Z" fill="#3b6ac0" fill-opacity="0.16"/>
<path d="M1974.32 1584.43C1974.32 1587.36 1971.95 1589.74 1969.02 1589.74C1966.09 1589.74 1963.71 1587.36 1963.71 1584.43C1963.71 1581.49 1966.09 1579.12 1969.02 1579.12C1971.95 1579.12 1974.32 1581.49 1974.32 1584.43Z" fill="#3b6ac0" fill-opacity="0.16"/>
<path d="M2006.16 1584.43C2006.16 1587.36 2003.79 1589.74 2000.85 1589.74C1997.92 1589.74 1995.55 1587.36 1995.55 1584.43C1995.55 1581.49 1997.92 1579.12 2000.85 1579.12C2003.79 1579.12 2006.16 1581.49 2006.16 1584.43Z" fill="#3b6ac0" fill-opacity="0.16"/>
<path d="M2038 1584.43C2038 1587.36 2035.62 1589.74 2032.69 1589.74C2029.76 1589.74 2027.39 1587.36 2027.39 1584.43C2027.39 1581.49 2029.76 1579.12 2032.69 1579.12C2035.62 1579.12 2038 1581.49 2038 1584.43Z" fill="#3b6ac0" fill-opacity="0.16"/>
<path d="M1719.61 1616.28C1719.61 1619.21 1717.24 1621.59 1714.31 1621.59C1711.38 1621.59 1709 1619.21 1709 1616.28C1709 1613.35 1711.38 1610.97 1714.31 1610.97C1717.24 1610.97 1719.61 1613.35 1719.61 1616.28Z" fill="#3b6ac0" fill-opacity="0.16"/>
<path d="M1751.45 1616.28C1751.45 1619.21 1749.08 1621.59 1746.15 1621.59C1743.21 1621.59 1740.84 1619.21 1740.84 1616.28C1740.84 1613.35 1743.21 1610.97 1746.15 1610.97C1749.08 1610.97 1751.45 1613.35 1751.45 1616.28Z" fill="#3b6ac0" fill-opacity="0.16"/>
<path d="M1783.29 1616.28C1783.29 1619.21 1780.91 1621.59 1777.98 1621.59C1775.05 1621.59 1772.68 1619.21 1772.68 1616.28C1772.68 1613.35 1775.05 1610.97 1777.98 1610.97C1780.91 1610.97 1783.29 1613.35 1783.29 1616.28Z" fill="#3b6ac0" fill-opacity="0.16"/>
<path d="M1815.13 1616.28C1815.13 1619.21 1812.75 1621.59 1809.82 1621.59C1806.89 1621.59 1804.52 1619.21 1804.52 1616.28C1804.52 1613.35 1806.89 1610.97 1809.82 1610.97C1812.75 1610.97 1815.13 1613.35 1815.13 1616.28Z" fill="#3b6ac0" fill-opacity="0.16"/>
<path d="M1846.97 1616.28C1846.97 1619.21 1844.59 1621.59 1841.66 1621.59C1838.73 1621.59 1836.35 1619.21 1836.35 1616.28C1836.35 1613.35 1838.73 1610.97 1841.66 1610.97C1844.59 1610.97 1846.97 1613.35 1846.97 1616.28Z" fill="#3b6ac0" fill-opacity="0.16"/>
<path d="M1878.81 1616.28C1878.81 1619.21 1876.43 1621.59 1873.5 1621.59C1870.57 1621.59 1868.19 1619.21 1868.19 1616.28C1868.19 1613.35 1870.57 1610.97 1873.5 1610.97C1876.43 1610.97 1878.81 1613.35 1878.81 1616.28Z" fill="#3b6ac0" fill-opacity="0.16"/>
<path d="M1910.65 1616.28C1910.65 1619.21 1908.27 1621.59 1905.34 1621.59C1902.41 1621.59 1900.03 1619.21 1900.03 1616.28C1900.03 1613.35 1902.41 1610.97 1905.34 1610.97C1908.27 1610.97 1910.65 1613.35 1910.65 1616.28Z" fill="#3b6ac0" fill-opacity="0.16"/>
<path d="M1942.48 1616.28C1942.48 1619.21 1940.11 1621.59 1937.18 1621.59C1934.25 1621.59 1931.87 1619.21 1931.87 1616.28C1931.87 1613.35 1934.25 1610.97 1937.18 1610.97C1940.11 1610.97 1942.48 1613.35 1942.48 1616.28Z" fill="#3b6ac0" fill-opacity="0.16"/>
<path d="M1974.32 1616.28C1974.32 1619.21 1971.95 1621.59 1969.02 1621.59C1966.09 1621.59 1963.71 1619.21 1963.71 1616.28C1963.71 1613.35 1966.09 1610.97 1969.02 1610.97C1971.95 1610.97 1974.32 1613.35 1974.32 1616.28Z" fill="#3b6ac0" fill-opacity="0.16"/>
<path d="M2006.16 1616.28C2006.16 1619.21 2003.79 1621.59 2000.85 1621.59C1997.92 1621.59 1995.55 1619.21 1995.55 1616.28C1995.55 1613.35 1997.92 1610.97 2000.85 1610.97C2003.79 1610.97 2006.16 1613.35 2006.16 1616.28Z" fill="#3b6ac0" fill-opacity="0.16"/>
<path d="M2038 1616.28C2038 1619.21 2035.62 1621.59 2032.69 1621.59C2029.76 1621.59 2027.39 1619.21 2027.39 1616.28C2027.39 1613.35 2029.76 1610.97 2032.69 1610.97C2035.62 1610.97 2038 1613.35 2038 1616.28Z" fill="#3b6ac0" fill-opacity="0.16"/>
<path d="M1719.61 1648.13C1719.61 1651.06 1717.24 1653.44 1714.31 1653.44C1711.38 1653.44 1709 1651.06 1709 1648.13C1709 1645.2 1711.38 1642.82 1714.31 1642.82C1717.24 1642.82 1719.61 1645.2 1719.61 1648.13Z" fill="#3b6ac0" fill-opacity="0.16"/>
<path d="M1751.45 1648.13C1751.45 1651.06 1749.08 1653.44 1746.15 1653.44C1743.21 1653.44 1740.84 1651.06 1740.84 1648.13C1740.84 1645.2 1743.21 1642.82 1746.15 1642.82C1749.08 1642.82 1751.45 1645.2 1751.45 1648.13Z" fill="#3b6ac0" fill-opacity="0.16"/>
<path d="M1783.29 1648.13C1783.29 1651.06 1780.91 1653.44 1777.98 1653.44C1775.05 1653.44 1772.68 1651.06 1772.68 1648.13C1772.68 1645.2 1775.05 1642.82 1777.98 1642.82C1780.91 1642.82 1783.29 1645.2 1783.29 1648.13Z" fill="#3b6ac0" fill-opacity="0.16"/>
<path d="M1815.13 1648.13C1815.13 1651.06 1812.75 1653.44 1809.82 1653.44C1806.89 1653.44 1804.52 1651.06 1804.52 1648.13C1804.52 1645.2 1806.89 1642.82 1809.82 1642.82C1812.75 1642.82 1815.13 1645.2 1815.13 1648.13Z" fill="#3b6ac0" fill-opacity="0.16"/>
<path d="M1846.97 1648.13C1846.97 1651.06 1844.59 1653.44 1841.66 1653.44C1838.73 1653.44 1836.35 1651.06 1836.35 1648.13C1836.35 1645.2 1838.73 1642.82 1841.66 1642.82C1844.59 1642.82 1846.97 1645.2 1846.97 1648.13Z" fill="#3b6ac0" fill-opacity="0.16"/>
<path d="M1878.81 1648.13C1878.81 1651.06 1876.43 1653.44 1873.5 1653.44C1870.57 1653.44 1868.19 1651.06 1868.19 1648.13C1868.19 1645.2 1870.57 1642.82 1873.5 1642.82C1876.43 1642.82 1878.81 1645.2 1878.81 1648.13Z" fill="#3b6ac0" fill-opacity="0.16"/>
<path d="M1910.65 1648.13C1910.65 1651.06 1908.27 1653.44 1905.34 1653.44C1902.41 1653.44 1900.03 1651.06 1900.03 1648.13C1900.03 1645.2 1902.41 1642.82 1905.34 1642.82C1908.27 1642.82 1910.65 1645.2 1910.65 1648.13Z" fill="#3b6ac0" fill-opacity="0.16"/>
<path d="M1942.48 1648.13C1942.48 1651.06 1940.11 1653.44 1937.18 1653.44C1934.25 1653.44 1931.87 1651.06 1931.87 1648.13C1931.87 1645.2 1934.25 1642.82 1937.18 1642.82C1940.11 1642.82 1942.48 1645.2 1942.48 1648.13Z" fill="#3b6ac0" fill-opacity="0.16"/>
<path d="M1974.32 1648.13C1974.32 1651.06 1971.95 1653.44 1969.02 1653.44C1966.09 1653.44 1963.71 1651.06 1963.71 1648.13C1963.71 1645.2 1966.09 1642.82 1969.02 1642.82C1971.95 1642.82 1974.32 1645.2 1974.32 1648.13Z" fill="#3b6ac0" fill-opacity="0.16"/>
<path d="M2006.16 1648.13C2006.16 1651.06 2003.79 1653.44 2000.85 1653.44C1997.92 1653.44 1995.55 1651.06 1995.55 1648.13C1995.55 1645.2 1997.92 1642.82 2000.85 1642.82C2003.79 1642.82 2006.16 1645.2 2006.16 1648.13Z" fill="#3b6ac0" fill-opacity="0.16"/>
<path d="M2038 1648.13C2038 1651.06 2035.62 1653.44 2032.69 1653.44C2029.76 1653.44 2027.39 1651.06 2027.39 1648.13C2027.39 1645.2 2029.76 1642.82 2032.69 1642.82C2035.62 1642.82 2038 1645.2 2038 1648.13Z" fill="#3b6ac0" fill-opacity="0.16"/>
<path d="M1719.61 1679.99C1719.61 1682.92 1717.24 1685.29 1714.31 1685.29C1711.38 1685.29 1709 1682.92 1709 1679.99C1709 1677.05 1711.38 1674.68 1714.31 1674.68C1717.24 1674.68 1719.61 1677.05 1719.61 1679.99Z" fill="#3b6ac0" fill-opacity="0.16"/>
<path d="M1751.45 1679.99C1751.45 1682.92 1749.08 1685.29 1746.15 1685.29C1743.21 1685.29 1740.84 1682.92 1740.84 1679.99C1740.84 1677.05 1743.21 1674.68 1746.15 1674.68C1749.08 1674.68 1751.45 1677.05 1751.45 1679.99Z" fill="#3b6ac0" fill-opacity="0.16"/>
<path d="M1783.29 1679.99C1783.29 1682.92 1780.91 1685.29 1777.98 1685.29C1775.05 1685.29 1772.68 1682.92 1772.68 1679.99C1772.68 1677.05 1775.05 1674.68 1777.98 1674.68C1780.91 1674.68 1783.29 1677.05 1783.29 1679.99Z" fill="#3b6ac0" fill-opacity="0.16"/>
<path d="M1815.13 1679.99C1815.13 1682.92 1812.75 1685.29 1809.82 1685.29C1806.89 1685.29 1804.52 1682.92 1804.52 1679.99C1804.52 1677.05 1806.89 1674.68 1809.82 1674.68C1812.75 1674.68 1815.13 1677.05 1815.13 1679.99Z" fill="#3b6ac0" fill-opacity="0.16"/>
<path d="M1846.97 1679.99C1846.97 1682.92 1844.59 1685.29 1841.66 1685.29C1838.73 1685.29 1836.35 1682.92 1836.35 1679.99C1836.35 1677.05 1838.73 1674.68 1841.66 1674.68C1844.59 1674.68 1846.97 1677.05 1846.97 1679.99Z" fill="#3b6ac0" fill-opacity="0.16"/>
<path d="M1878.81 1679.99C1878.81 1682.92 1876.43 1685.29 1873.5 1685.29C1870.57 1685.29 1868.19 1682.92 1868.19 1679.99C1868.19 1677.05 1870.57 1674.68 1873.5 1674.68C1876.43 1674.68 1878.81 1677.05 1878.81 1679.99Z" fill="#3b6ac0" fill-opacity="0.16"/>
<path d="M1910.65 1679.99C1910.65 1682.92 1908.27 1685.29 1905.34 1685.29C1902.41 1685.29 1900.03 1682.92 1900.03 1679.99C1900.03 1677.05 1902.41 1674.68 1905.34 1674.68C1908.27 1674.68 1910.65 1677.05 1910.65 1679.99Z" fill="#3b6ac0" fill-opacity="0.16"/>
<path d="M1942.48 1679.99C1942.48 1682.92 1940.11 1685.29 1937.18 1685.29C1934.25 1685.29 1931.87 1682.92 1931.87 1679.99C1931.87 1677.05 1934.25 1674.68 1937.18 1674.68C1940.11 1674.68 1942.48 1677.05 1942.48 1679.99Z" fill="#3b6ac0" fill-opacity="0.16"/>
<path d="M1974.32 1679.99C1974.32 1682.92 1971.95 1685.29 1969.02 1685.29C1966.09 1685.29 1963.71 1682.92 1963.71 1679.99C1963.71 1677.05 1966.09 1674.68 1969.02 1674.68C1971.95 1674.68 1974.32 1677.05 1974.32 1679.99Z" fill="#3b6ac0" fill-opacity="0.16"/>
<path d="M2006.16 1679.99C2006.16 1682.92 2003.79 1685.29 2000.85 1685.29C1997.92 1685.29 1995.55 1682.92 1995.55 1679.99C1995.55 1677.05 1997.92 1674.68 2000.85 1674.68C2003.79 1674.68 2006.16 1677.05 2006.16 1679.99Z" fill="#3b6ac0" fill-opacity="0.16"/>
<path d="M2038 1679.99C2038 1682.92 2035.62 1685.29 2032.69 1685.29C2029.76 1685.29 2027.39 1682.92 2027.39 1679.99C2027.39 1677.05 2029.76 1674.68 2032.69 1674.68C2035.62 1674.68 2038 1677.05 2038 1679.99Z" fill="#3b6ac0" fill-opacity="0.16"/>
<path d="M1719.61 1711.84C1719.61 1714.77 1717.24 1717.15 1714.31 1717.15C1711.38 1717.15 1709 1714.77 1709 1711.84C1709 1708.91 1711.38 1706.53 1714.31 1706.53C1717.24 1706.53 1719.61 1708.91 1719.61 1711.84Z" fill="#3b6ac0" fill-opacity="0.16"/>
<path d="M1751.45 1711.84C1751.45 1714.77 1749.08 1717.15 1746.15 1717.15C1743.21 1717.15 1740.84 1714.77 1740.84 1711.84C1740.84 1708.91 1743.21 1706.53 1746.15 1706.53C1749.08 1706.53 1751.45 1708.91 1751.45 1711.84Z" fill="#3b6ac0" fill-opacity="0.16"/>
<path d="M1783.29 1711.84C1783.29 1714.77 1780.91 1717.15 1777.98 1717.15C1775.05 1717.15 1772.68 1714.77 1772.68 1711.84C1772.68 1708.91 1775.05 1706.53 1777.98 1706.53C1780.91 1706.53 1783.29 1708.91 1783.29 1711.84Z" fill="#3b6ac0" fill-opacity="0.16"/>
<path d="M1815.13 1711.84C1815.13 1714.77 1812.75 1717.15 1809.82 1717.15C1806.89 1717.15 1804.52 1714.77 1804.52 1711.84C1804.52 1708.91 1806.89 1706.53 1809.82 1706.53C1812.75 1706.53 1815.13 1708.91 1815.13 1711.84Z" fill="#3b6ac0" fill-opacity="0.16"/>
<path d="M1846.97 1711.84C1846.97 1714.77 1844.59 1717.15 1841.66 1717.15C1838.73 1717.15 1836.35 1714.77 1836.35 1711.84C1836.35 1708.91 1838.73 1706.53 1841.66 1706.53C1844.59 1706.53 1846.97 1708.91 1846.97 1711.84Z" fill="#3b6ac0" fill-opacity="0.16"/>
<path d="M1878.81 1711.84C1878.81 1714.77 1876.43 1717.15 1873.5 1717.15C1870.57 1717.15 1868.19 1714.77 1868.19 1711.84C1868.19 1708.91 1870.57 1706.53 1873.5 1706.53C1876.43 1706.53 1878.81 1708.91 1878.81 1711.84Z" fill="#3b6ac0" fill-opacity="0.16"/>
<path d="M1910.65 1711.84C1910.65 1714.77 1908.27 1717.15 1905.34 1717.15C1902.41 1717.15 1900.03 1714.77 1900.03 1711.84C1900.03 1708.91 1902.41 1706.53 1905.34 1706.53C1908.27 1706.53 1910.65 1708.91 1910.65 1711.84Z" fill="#3b6ac0" fill-opacity="0.16"/>
<path d="M1942.48 1711.84C1942.48 1714.77 1940.11 1717.15 1937.18 1717.15C1934.25 1717.15 1931.87 1714.77 1931.87 1711.84C1931.87 1708.91 1934.25 1706.53 1937.18 1706.53C1940.11 1706.53 1942.48 1708.91 1942.48 1711.84Z" fill="#3b6ac0" fill-opacity="0.16"/>
<path d="M1974.32 1711.84C1974.32 1714.77 1971.95 1717.15 1969.02 1717.15C1966.09 1717.15 1963.71 1714.77 1963.71 1711.84C1963.71 1708.91 1966.09 1706.53 1969.02 1706.53C1971.95 1706.53 1974.32 1708.91 1974.32 1711.84Z" fill="#3b6ac0" fill-opacity="0.16"/>
<path d="M2006.16 1711.84C2006.16 1714.77 2003.79 1717.15 2000.85 1717.15C1997.92 1717.15 1995.55 1714.77 1995.55 1711.84C1995.55 1708.91 1997.92 1706.53 2000.85 1706.53C2003.79 1706.53 2006.16 1708.91 2006.16 1711.84Z" fill="#3b6ac0" fill-opacity="0.16"/>
<path d="M2038 1711.84C2038 1714.77 2035.62 1717.15 2032.69 1717.15C2029.76 1717.15 2027.39 1714.77 2027.39 1711.84C2027.39 1708.91 2029.76 1706.53 2032.69 1706.53C2035.62 1706.53 2038 1708.91 2038 1711.84Z" fill="#3b6ac0" fill-opacity="0.16"/>
<path d="M1719.61 1743.69C1719.61 1746.62 1717.24 1749 1714.31 1749C1711.38 1749 1709 1746.62 1709 1743.69C1709 1740.76 1711.38 1738.38 1714.31 1738.38C1717.24 1738.38 1719.61 1740.76 1719.61 1743.69Z" fill="#3b6ac0" fill-opacity="0.16"/>
<path d="M1751.45 1743.69C1751.45 1746.62 1749.08 1749 1746.15 1749C1743.21 1749 1740.84 1746.62 1740.84 1743.69C1740.84 1740.76 1743.21 1738.38 1746.15 1738.38C1749.08 1738.38 1751.45 1740.76 1751.45 1743.69Z" fill="#3b6ac0" fill-opacity="0.16"/>
<path d="M1783.29 1743.69C1783.29 1746.62 1780.91 1749 1777.98 1749C1775.05 1749 1772.68 1746.62 1772.68 1743.69C1772.68 1740.76 1775.05 1738.38 1777.98 1738.38C1780.91 1738.38 1783.29 1740.76 1783.29 1743.69Z" fill="#3b6ac0" fill-opacity="0.16"/>
<path d="M1815.13 1743.69C1815.13 1746.62 1812.75 1749 1809.82 1749C1806.89 1749 1804.52 1746.62 1804.52 1743.69C1804.52 1740.76 1806.89 1738.38 1809.82 1738.38C1812.75 1738.38 1815.13 1740.76 1815.13 1743.69Z" fill="#3b6ac0" fill-opacity="0.16"/>
<path d="M1846.97 1743.69C1846.97 1746.62 1844.59 1749 1841.66 1749C1838.73 1749 1836.35 1746.62 1836.35 1743.69C1836.35 1740.76 1838.73 1738.38 1841.66 1738.38C1844.59 1738.38 1846.97 1740.76 1846.97 1743.69Z" fill="#3b6ac0" fill-opacity="0.16"/>
<path d="M1878.81 1743.69C1878.81 1746.62 1876.43 1749 1873.5 1749C1870.57 1749 1868.19 1746.62 1868.19 1743.69C1868.19 1740.76 1870.57 1738.38 1873.5 1738.38C1876.43 1738.38 1878.81 1740.76 1878.81 1743.69Z" fill="#3b6ac0" fill-opacity="0.16"/>
<path d="M1910.65 1743.69C1910.65 1746.62 1908.27 1749 1905.34 1749C1902.41 1749 1900.03 1746.62 1900.03 1743.69C1900.03 1740.76 1902.41 1738.38 1905.34 1738.38C1908.27 1738.38 1910.65 1740.76 1910.65 1743.69Z" fill="#3b6ac0" fill-opacity="0.16"/>
<path d="M1942.48 1743.69C1942.48 1746.62 1940.11 1749 1937.18 1749C1934.25 1749 1931.87 1746.62 1931.87 1743.69C1931.87 1740.76 1934.25 1738.38 1937.18 1738.38C1940.11 1738.38 1942.48 1740.76 1942.48 1743.69Z" fill="#3b6ac0" fill-opacity="0.16"/>
<path d="M1974.32 1743.69C1974.32 1746.62 1971.95 1749 1969.02 1749C1966.09 1749 1963.71 1746.62 1963.71 1743.69C1963.71 1740.76 1966.09 1738.38 1969.02 1738.38C1971.95 1738.38 1974.32 1740.76 1974.32 1743.69Z" fill="#3b6ac0" fill-opacity="0.16"/>
<path d="M2006.16 1743.69C2006.16 1746.62 2003.79 1749 2000.85 1749C1997.92 1749 1995.55 1746.62 1995.55 1743.69C1995.55 1740.76 1997.92 1738.38 2000.85 1738.38C2003.79 1738.38 2006.16 1740.76 2006.16 1743.69Z" fill="#3b6ac0" fill-opacity="0.16"/>
<path d="M2038 1743.69C2038 1746.62 2035.62 1749 2032.69 1749C2029.76 1749 2027.39 1746.62 2027.39 1743.69C2027.39 1740.76 2029.76 1738.38 2032.69 1738.38C2035.62 1738.38 2038 1740.76 2038 1743.69Z" fill="#3b6ac0" fill-opacity="0.16"/>
<path fill-rule="evenodd" clip-rule="evenodd" d="M127.227 2666.45C128.456 2666.45 129.453 2665.46 129.453 2664.23C129.453 2663 128.456 2662 127.227 2662C125.997 2662 125 2663 125 2664.23C125 2665.46 125.997 2666.45 127.227 2666.45ZM127.227 2853.48C128.456 2853.48 129.453 2852.49 129.453 2851.26C129.453 2850.03 128.456 2849.03 127.227 2849.03C125.997 2849.03 125 2850.03 125 2851.26C125 2852.49 125.997 2853.48 127.227 2853.48ZM316.484 2664.23C316.484 2665.46 315.488 2666.45 314.258 2666.45C313.028 2666.45 312.031 2665.46 312.031 2664.23C312.031 2663 313.028 2662 314.258 2662C315.488 2662 316.484 2663 316.484 2664.23ZM314.258 2853.48C315.488 2853.48 316.484 2852.49 316.484 2851.26C316.484 2850.03 315.488 2849.03 314.258 2849.03C313.028 2849.03 312.031 2850.03 312.031 2851.26C312.031 2852.49 313.028 2853.48 314.258 2853.48ZM129.453 2757.74C129.453 2758.97 128.456 2759.97 127.227 2759.97C125.997 2759.97 125 2758.97 125 2757.74C125 2756.51 125.997 2755.52 127.227 2755.52C128.456 2755.52 129.453 2756.51 129.453 2757.74ZM127.227 2947C128.456 2947 129.453 2946 129.453 2944.77C129.453 2943.54 128.456 2942.55 127.227 2942.55C125.997 2942.55 125 2943.54 125 2944.77C125 2946 125.997 2947 127.227 2947ZM316.484 2757.74C316.484 2758.97 315.488 2759.97 314.258 2759.97C313.028 2759.97 312.031 2758.97 312.031 2757.74C312.031 2756.51 313.028 2755.52 314.258 2755.52C315.488 2755.52 316.484 2756.51 316.484 2757.74ZM314.258 2947C315.488 2947 316.484 2946 316.484 2944.77C316.484 2943.54 315.488 2942.55 314.258 2942.55C313.028 2942.55 312.031 2943.54 312.031 2944.77C312.031 2946 313.028 2947 314.258 2947ZM222.969 2664.23C222.969 2665.46 221.972 2666.45 220.742 2666.45C219.512 2666.45 218.516 2665.46 218.516 2664.23C218.516 2663 219.512 2662 220.742 2662C221.972 2662 222.969 2663 222.969 2664.23ZM220.742 2853.48C221.972 2853.48 222.969 2852.49 222.969 2851.26C222.969 2850.03 221.972 2849.03 220.742 2849.03C219.512 2849.03 218.516 2850.03 218.516 2851.26C218.516 2852.49 219.512 2853.48 220.742 2853.48ZM410 2664.23C410 2665.46 409.003 2666.45 407.773 2666.45C406.544 2666.45 405.547 2665.46 405.547 2664.23C405.547 2663 406.544 2662 407.773 2662C409.003 2662 410 2663 410 2664.23ZM407.773 2853.48C409.003 2853.48 410 2852.49 410 2851.26C410 2850.03 409.003 2849.03 407.773 2849.03C406.544 2849.03 405.547 2850.03 405.547 2851.26C405.547 2852.49 406.544 2853.48 407.773 2853.48ZM222.969 2757.74C222.969 2758.97 221.972 2759.97 220.742 2759.97C219.512 2759.97 218.516 2758.97 218.516 2757.74C218.516 2756.51 219.512 2755.52 220.742 2755.52C221.972 2755.52 222.969 2756.51 222.969 2757.74ZM220.742 2947C221.972 2947 222.969 2946 222.969 2944.77C222.969 2943.54 221.972 2942.55 220.742 2942.55C219.512 2942.55 218.516 2943.54 218.516 2944.77C218.516 2946 219.512 2947 220.742 2947ZM410 2757.74C410 2758.97 409.003 2759.97 407.773 2759.97C406.544 2759.97 405.547 2758.97 405.547 2757.74C405.547 2756.51 406.544 2755.52 407.773 2755.52C409.003 2755.52 410 2756.51 410 2757.74ZM407.773 2947C409.003 2947 410 2946 410 2944.77C410 2943.54 409.003 2942.55 407.773 2942.55C406.544 2942.55 405.547 2943.54 405.547 2944.77C405.547 2946 406.544 2947 407.773 2947Z" fill="#3b6ac0" fill-opacity="0.23"/>
<path fill-rule="evenodd" clip-rule="evenodd" d="M1569.23 2175.45C1570.46 2175.45 1571.45 2174.46 1571.45 2173.23C1571.45 2172 1570.46 2171 1569.23 2171C1568 2171 1567 2172 1567 2173.23C1567 2174.46 1568 2175.45 1569.23 2175.45ZM1569.23 2362.48C1570.46 2362.48 1571.45 2361.49 1571.45 2360.26C1571.45 2359.03 1570.46 2358.03 1569.23 2358.03C1568 2358.03 1567 2359.03 1567 2360.26C1567 2361.49 1568 2362.48 1569.23 2362.48ZM1758.48 2173.23C1758.48 2174.46 1757.49 2175.45 1756.26 2175.45C1755.03 2175.45 1754.03 2174.46 1754.03 2173.23C1754.03 2172 1755.03 2171 1756.26 2171C1757.49 2171 1758.48 2172 1758.48 2173.23ZM1756.26 2362.48C1757.49 2362.48 1758.48 2361.49 1758.48 2360.26C1758.48 2359.03 1757.49 2358.03 1756.26 2358.03C1755.03 2358.03 1754.03 2359.03 1754.03 2360.26C1754.03 2361.49 1755.03 2362.48 1756.26 2362.48ZM1571.45 2266.74C1571.45 2267.97 1570.46 2268.97 1569.23 2268.97C1568 2268.97 1567 2267.97 1567 2266.74C1567 2265.51 1568 2264.52 1569.23 2264.52C1570.46 2264.52 1571.45 2265.51 1571.45 2266.74ZM1569.23 2456C1570.46 2456 1571.45 2455 1571.45 2453.77C1571.45 2452.54 1570.46 2451.55 1569.23 2451.55C1568 2451.55 1567 2452.54 1567 2453.77C1567 2455 1568 2456 1569.23 2456ZM1758.48 2266.74C1758.48 2267.97 1757.49 2268.97 1756.26 2268.97C1755.03 2268.97 1754.03 2267.97 1754.03 2266.74C1754.03 2265.51 1755.03 2264.52 1756.26 2264.52C1757.49 2264.52 1758.48 2265.51 1758.48 2266.74ZM1756.26 2456C1757.49 2456 1758.48 2455 1758.48 2453.77C1758.48 2452.54 1757.49 2451.55 1756.26 2451.55C1755.03 2451.55 1754.03 2452.54 1754.03 2453.77C1754.03 2455 1755.03 2456 1756.26 2456ZM1664.97 2173.23C1664.97 2174.46 1663.97 2175.45 1662.74 2175.45C1661.51 2175.45 1660.52 2174.46 1660.52 2173.23C1660.52 2172 1661.51 2171 1662.74 2171C1663.97 2171 1664.97 2172 1664.97 2173.23ZM1662.74 2362.48C1663.97 2362.48 1664.97 2361.49 1664.97 2360.26C1664.97 2359.03 1663.97 2358.03 1662.74 2358.03C1661.51 2358.03 1660.52 2359.03 1660.52 2360.26C1660.52 2361.49 1661.51 2362.48 1662.74 2362.48ZM1852 2173.23C1852 2174.46 1851 2175.45 1849.77 2175.45C1848.54 2175.45 1847.55 2174.46 1847.55 2173.23C1847.55 2172 1848.54 2171 1849.77 2171C1851 2171 1852 2172 1852 2173.23ZM1849.77 2362.48C1851 2362.48 1852 2361.49 1852 2360.26C1852 2359.03 1851 2358.03 1849.77 2358.03C1848.54 2358.03 1847.55 2359.03 1847.55 2360.26C1847.55 2361.49 1848.54 2362.48 1849.77 2362.48ZM1664.97 2266.74C1664.97 2267.97 1663.97 2268.97 1662.74 2268.97C1661.51 2268.97 1660.52 2267.97 1660.52 2266.74C1660.52 2265.51 1661.51 2264.52 1662.74 2264.52C1663.97 2264.52 1664.97 2265.51 1664.97 2266.74ZM1662.74 2456C1663.97 2456 1664.97 2455 1664.97 2453.77C1664.97 2452.54 1663.97 2451.55 1662.74 2451.55C1661.51 2451.55 1660.52 2452.54 1660.52 2453.77C1660.52 2455 1661.51 2456 1662.74 2456ZM1852 2266.74C1852 2267.97 1851 2268.97 1849.77 2268.97C1848.54 2268.97 1847.55 2267.97 1847.55 2266.74C1847.55 2265.51 1848.54 2264.52 1849.77 2264.52C1851 2264.52 1852 2265.51 1852 2266.74ZM1849.77 2456C1851 2456 1852 2455 1852 2453.77C1852 2452.54 1851 2451.55 1849.77 2451.55C1848.54 2451.55 1847.55 2452.54 1847.55 2453.77C1847.55 2455 1848.54 2456 1849.77 2456Z" fill="#3b6ac0" fill-opacity="0.23"/>
<g filter="url(#filter4_f_56_2)">
<circle cx="80" cy="689" r="223" fill="#3b6ac0" fill-opacity="0.11"/>
</g>
</g>
<defs>
<filter id="filter0_f_56_2" x="-493.3" y="921.7" width="1185.6" height="1185.6" filterUnits="userSpaceOnUse" color-interpolation-filters="sRGB">
<feFlood flood-opacity="0" result="BackgroundImageFix"/>
<feBlend mode="normal" in="SourceGraphic" in2="BackgroundImageFix" result="shape"/>
<feGaussianBlur stdDeviation="118.15" result="effect1_foregroundBlur_56_2"/>
</filter>
<filter id="filter1_f_56_2" x="1194.7" y="2385.7" width="1185.6" height="1185.6" filterUnits="userSpaceOnUse" color-interpolation-filters="sRGB">
<feFlood flood-opacity="0" result="BackgroundImageFix"/>
<feBlend mode="normal" in="SourceGraphic" in2="BackgroundImageFix" result="shape"/>
<feGaussianBlur stdDeviation="118.15" result="effect1_foregroundBlur_56_2"/>
</filter>
<filter id="filter2_f_56_2" x="1338.7" y="-267.3" width="1185.6" height="1185.6" filterUnits="userSpaceOnUse" color-interpolation-filters="sRGB">
<feFlood flood-opacity="0" result="BackgroundImageFix"/>
<feBlend mode="normal" in="SourceGraphic" in2="BackgroundImageFix" result="shape"/>
<feGaussianBlur stdDeviation="118.15" result="effect1_foregroundBlur_56_2"/>
</filter>
<filter id="filter3_f_56_2" x="-361.3" y="3324.7" width="1185.6" height="1185.6" filterUnits="userSpaceOnUse" color-interpolation-filters="sRGB">
<feFlood flood-opacity="0" result="BackgroundImageFix"/>
<feBlend mode="normal" in="SourceGraphic" in2="BackgroundImageFix" result="shape"/>
<feGaussianBlur stdDeviation="118.15" result="effect1_foregroundBlur_56_2"/>
</filter>
<filter id="filter4_f_56_2" x="-379.3" y="229.7" width="918.6" height="918.6" filterUnits="userSpaceOnUse" color-interpolation-filters="sRGB">
<feFlood flood-opacity="0" result="BackgroundImageFix"/>
<feBlend mode="normal" in="SourceGraphic" in2="BackgroundImageFix" result="shape"/>
<feGaussianBlur stdDeviation="118.15" result="effect1_foregroundBlur_56_2"/>
</filter>
<clipPath id="clip0_56_2">
<rect width="1920" height="3456" fill="white"/>
</clipPath>
</defs>
</svg>
