<svg width="196" height="79" viewBox="0 0 196 79" fill="none" xmlns="http://www.w3.org/2000/svg">
<path d="M118.456 31.1H95.6562L89.1563 52.9H108.456V67.1H84.8563L78.9563 87H61.3563L67.2563 67.1H38.3563L32.4563 87H14.8563L20.7563 67.1H0.95625V52.9H25.0563L31.5563 31.1H10.9563V16.9H35.7563L40.8563 -2.86102e-06H58.4563L53.3563 16.9H82.2563L87.3563 -2.86102e-06H104.956L99.8563 16.9H118.456V31.1ZM71.5563 52.9L78.0563 31.1H49.1563L42.6563 52.9H71.5563ZM171.034 56.9H195.034V72H129.034V56.9H153.134L153.234 23.9C145.634 30.6 136.334 30.6 129.034 30.6V15.4C139.334 15.4 153.034 15.4 153.034 2H171.034V56.9Z" fill="white" fill-opacity="0.09"/>
</svg>
