<?xml version="1.0" encoding="UTF-8"?>
<!-- Generator: visioncortex VTracer 0.6.3 -->
<svg version="1.1" xmlns="http://www.w3.org/2000/svg" width="473" height="467">
<path d="M0 0 C0.75 0.26 1.5 0.51 2.27 0.78 C10.49 3.65 18.44 6.76 25.76 11.54 C27.56 12.72 29.43 13.79 31.31 14.83 C35.27 17.07 38.81 19.74 42.38 22.56 C43 23.04 43.63 23.53 44.28 24.02 C48.88 27.63 48.88 27.63 50 31 C51.32 31.69 52.66 32.35 54 33 C55.53 34.55 55.53 34.55 56.94 36.31 C58.68 38.47 60.44 40.44 62.41 42.41 C69.76 49.77 75.39 57.7 80 67 C80.56 68.06 80.56 68.06 81.13 69.13 C84.54 75.66 86.99 82.31 89.25 89.31 C89.6 90.37 89.95 91.43 90.31 92.52 C92.3 98.57 94.1 104.22 94.18 110.64 C94.19 111.53 94.2 112.43 94.22 113.35 C94.22 114.31 94.23 115.27 94.24 116.26 C94.25 117.27 94.26 118.27 94.27 119.31 C94.43 140.53 94.55 161.18 90 182 C89.74 183.24 89.47 184.49 89.2 185.77 C86.23 199.77 82.85 213.52 78 227 C77.32 229.2 76.66 231.41 76 233.62 C74.32 239.18 72.28 244.55 70.15 249.95 C69.14 252.64 68.32 255.29 67.56 258.06 C66.13 263.09 63.81 267.51 61.4 272.14 C60.22 274.56 59.33 276.8 58.56 279.38 C54.23 293.45 45.57 308.12 37 320 C36.34 320 35.68 320 35 320 C34.6 320.84 34.6 320.84 34.19 321.69 C30.2 329.45 24.32 334.7 18 340.56 C17.1 341.41 17.1 341.41 16.17 342.27 C13.59 344.67 11.01 346.99 8.25 349.2 C1.64 354.49 -3.33 361.89 -8.58 368.49 C-11.78 372.5 -15.02 376.44 -18.44 380.25 C-19.52 381.46 -20.56 382.69 -21.59 383.94 C-26.44 389.78 -32.07 394.3 -38 399 C-39.9 400.56 -41.79 402.12 -43.69 403.69 C-47.44 406.76 -51.24 409.71 -55.15 412.58 C-57.73 414.56 -60.15 416.71 -62.55 418.9 C-64 420 -64 420 -66 420 C-66.31 420.84 -66.31 420.84 -66.62 421.69 C-68.16 424.27 -70.02 425.74 -72.36 427.58 C-74.7 429.6 -76.59 431.93 -78.57 434.3 C-82.03 438.41 -85.7 441.65 -90.16 444.59 C-92.16 446.04 -92.16 446.04 -94.16 448.33 C-97.76 451.71 -101.62 453.86 -105.94 456.19 C-106.72 456.63 -107.51 457.06 -108.32 457.51 C-117.48 462.53 -125.07 463.43 -135.44 463.44 C-136.14 463.44 -136.83 463.44 -137.55 463.45 C-148.43 463.47 -158.76 462.35 -169.44 460.38 C-181.5 458.16 -191.57 457.14 -203.47 460.75 C-212.81 463.44 -221.8 463.51 -231.44 463.44 C-232.7 463.44 -232.7 463.44 -233.99 463.43 C-246.34 463.4 -257.78 462.24 -269.82 459.45 C-282.96 456.74 -298 457.27 -310.7 461.55 C-316.72 463.42 -322.54 463.54 -328.81 463.5 C-329.97 463.5 -331.12 463.49 -332.31 463.48 C-341.06 463.31 -347.18 461.97 -355 458 C-356.91 457.22 -358.84 456.49 -360.77 455.75 C-367.13 453.33 -373.18 450.56 -379 447 C-379 446.01 -379 445.02 -379 444 C-378.23 443.81 -377.46 443.62 -376.67 443.42 C-369.24 441.57 -361.81 439.71 -354.39 437.85 C-351.72 437.18 -349.04 436.53 -346.36 435.89 C-333.04 432.61 -320.84 426.88 -309 420 C-307.76 419.29 -307.76 419.29 -306.49 418.57 C-284.88 406 -261.38 386.77 -250 364 C-249.34 364 -248.68 364 -248 364 C-247.79 363.22 -247.59 362.43 -247.38 361.62 C-245.8 357.47 -243.68 353.94 -241.34 350.17 C-239.99 348.06 -239.99 348.06 -239 346 C-238.34 346 -237.68 346 -237 346 C-236.9 345.14 -236.8 344.29 -236.7 343.41 C-235.92 339.63 -234.57 336.89 -232.75 333.5 C-229.72 327.7 -227.34 321.85 -225.24 315.64 C-224.23 312.69 -223.17 309.77 -222.07 306.85 C-219.88 300.84 -218.14 294.75 -216.5 288.56 C-216.2 287.42 -215.89 286.27 -215.58 285.09 C-212.96 275.12 -210.81 265.15 -209 255 C-208.77 253.73 -208.54 252.46 -208.3 251.15 C-205.61 236.29 -203.01 221.46 -201.44 206.44 C-200.08 193.45 -197.69 180.77 -195 168 C-194.8 167.01 -194.59 166.02 -194.38 165 C-192.09 153.93 -189.35 143.3 -185.33 132.73 C-184.39 130.1 -183.66 127.71 -183.04 125.02 C-182.04 120.81 -180.42 117.04 -178.62 113.12 C-177.99 111.71 -177.35 110.29 -176.72 108.87 C-176.27 107.86 -176.27 107.86 -175.8 106.83 C-174.84 104.64 -173.97 102.42 -173.12 100.19 C-162.07 72.06 -147.02 47.71 -124 28 C-123.44 27.5 -122.87 27 -122.29 26.48 C-119.33 23.89 -116.23 21.91 -112.77 20.03 C-110.97 18.98 -109.35 17.82 -107.69 16.56 C-104.15 13.97 -100.39 12.08 -96.45 10.18 C-95 9.49 -93.57 8.76 -92.18 7.97 C-67.13 -6.01 -27.03 -9.7 0 0 Z M-126.1 80.93 C-134.57 85.7 -137.9 92.2 -140.81 101.19 C-143.31 111.09 -141.83 121.05 -137 130 C-130.74 139.95 -122.99 147.78 -111.41 150.42 C-99 152.53 -86.66 151.03 -76 144 C-72.64 140.96 -70.07 138.04 -68 134 C-68 133.34 -68 132.68 -68 132 C-69.04 131.91 -70.08 131.83 -71.15 131.74 C-82.06 130.69 -90.6 128.51 -99 121 C-105.58 111.14 -108.61 98.87 -112.02 87.64 C-113.31 84.17 -115.21 82.38 -118 80 C-121.5 78.83 -122.84 79.4 -126.1 80.93 Z M41 123 C39.13 125.24 37.61 127.56 36 130 C34.68 131.01 33.34 132.01 32 133 C31.55 133.8 31.09 134.61 30.62 135.44 C28.56 138.69 26.28 140.01 23 142 C22.01 142.7 21.02 143.4 20 144.12 C13.02 148.49 6.03 148.8 -2 148 C-5.04 147.11 -7.86 146.05 -10.76 144.78 C-13.12 143.7 -13.12 143.7 -16 145 C-15.57 152.79 -13.29 159.95 -7.44 165.38 C-6.63 165.91 -5.83 166.45 -5 167 C-4.36 167.66 -3.72 168.32 -3.06 169 C4 175.84 14.29 178.81 24 179.56 C35.32 178.89 46.42 173.17 54 165 C54.66 164.3 55.32 163.6 56 162.88 C62.46 153.59 65.01 144.2 64 133 C62.36 127.12 59.35 122.24 55 118 C48.97 115.94 45.51 119.16 41 123 Z " fill="#3b6ac0" transform="translate(379,4)"/>
</svg>
