<svg width="41" height="32" viewBox="0 0 41 32" fill="none" xmlns="http://www.w3.org/2000/svg">
<path d="M2 11.4182C2 5.84673 6.81051 1.49327 12.3543 2.04765L19.7101 2.78323C20.4579 2.85801 21.2112 2.85801 21.959 2.78323L29.3148 2.04765C34.8586 1.49327 39.6691 5.84673 39.6691 11.4182V22.718C39.6691 29.4857 30.8246 32.0509 27.2035 26.3334C24.6226 22.2582 18.7257 22.1221 15.9594 26.0739L15.4241 26.8387C11.2868 32.749 2 29.8216 2 22.6071V11.4182Z" stroke="#3b6ac0" stroke-width="2.5"/>
<circle cx="32.1354" cy="11.3712" r="1.88346" fill="#3b6ac0"/>
<circle cx="28.3683" cy="17.0216" r="1.88346" fill="#3b6ac0"/>
<path d="M13.3008 17.9635L13.3008 10.4297" stroke="#3b6ac0" stroke-width="2.5" stroke-linecap="round" stroke-linejoin="round"/>
<path d="M9.5338 14.1965L17.0676 14.1965" stroke="#3b6ac0" stroke-width="2.5" stroke-linecap="round" stroke-linejoin="round"/>
</svg>
